<svg width="628" height="442" viewBox="0 0 628 442" fill="none" xmlns="http://www.w3.org/2000/svg">
<path d="M371 0H34.9999C29.4771 0 24.9999 4.47715 24.9999 10V205C24.9999 210.523 29.4771 215 34.9999 215H371C376.523 215 381 210.523 381 205V10C381 4.47715 376.523 0 371 0Z" fill="url(#paint0_linear)"/>
<path opacity="0.119" d="M236.514 440.074C236.514 440.074 265.041 426.257 285.891 402.936C306.741 379.615 348.691 381.823 370.136 384.529C391.581 387.235 431.556 386.86 453.802 354.994C476.048 323.128 482.942 293.038 522.627 296.724C562.312 300.41 595.391 313.712 627.557 306.289" stroke="white" stroke-width="3" stroke-miterlimit="10"/>
<path opacity="0.119" d="M231.712 435.269C231.712 435.269 260.239 421.452 281.089 398.131C301.939 374.81 343.889 377.018 365.334 379.724C386.779 382.43 426.754 382.055 449 350.189C471.246 318.323 478.14 288.233 517.825 291.919C557.51 295.605 590.589 308.907 622.755 301.484" stroke="white" stroke-width="3" stroke-miterlimit="10"/>
<path opacity="0.119" d="M226.91 430.463C226.91 430.463 255.437 416.646 276.287 393.325C297.137 370.004 339.087 372.212 360.532 374.918C381.977 377.624 421.952 377.249 444.198 345.383C466.444 313.517 473.338 283.427 513.023 287.113C552.708 290.799 585.787 304.101 617.953 296.678" stroke="white" stroke-width="3" stroke-miterlimit="10"/>
<path opacity="0.119" d="M222.109 425.657C222.109 425.657 250.636 411.84 271.486 388.519C292.336 365.198 334.286 367.406 355.731 370.112C377.176 372.818 417.151 372.443 439.397 340.577C461.643 308.711 468.537 278.621 508.222 282.307C547.907 285.993 580.986 299.295 613.152 291.872" stroke="white" stroke-width="3" stroke-miterlimit="10"/>
<path opacity="0.119" d="M217.307 420.852C217.307 420.852 245.834 407.035 266.684 383.714C287.534 360.393 329.484 362.601 350.929 365.307C372.374 368.013 412.349 367.638 434.595 335.772C456.841 303.906 463.735 273.816 503.42 277.502C543.105 281.188 576.184 294.49 608.35 287.067" stroke="white" stroke-width="3" stroke-miterlimit="10"/>
<path opacity="0.119" d="M212.505 416.046C212.505 416.046 241.032 402.229 261.882 378.908C282.732 355.587 324.682 357.795 346.127 360.501C367.572 363.207 407.547 362.832 429.793 330.966C452.039 299.1 458.933 269.01 498.618 272.696C538.303 276.382 571.382 289.684 603.548 282.261" stroke="white" stroke-width="3" stroke-miterlimit="10"/>
<path opacity="0.119" d="M207.704 411.24C207.704 411.24 236.231 397.423 257.081 374.102C277.931 350.781 319.881 352.989 341.326 355.695C362.771 358.401 402.746 358.026 424.992 326.16C447.238 294.294 454.132 264.204 493.817 267.89C533.502 271.576 566.581 284.878 598.747 277.455" stroke="white" stroke-width="3" stroke-miterlimit="10"/>
<path opacity="0.119" d="M202.902 406.434C202.902 406.434 231.429 392.617 252.279 369.296C273.129 345.975 315.079 348.183 336.524 350.889C357.969 353.595 397.944 353.22 420.19 321.354C442.436 289.488 449.33 259.398 489.015 263.084C528.7 266.77 561.779 280.072 593.945 272.649" stroke="white" stroke-width="3" stroke-miterlimit="10"/>
<path opacity="0.119" d="M198.1 401.629C198.1 401.629 226.627 387.812 247.477 364.491C268.327 341.17 310.277 343.378 331.722 346.084C353.167 348.79 393.142 348.415 415.388 316.549C437.634 284.683 444.528 254.593 484.213 258.279C523.898 261.965 556.977 275.267 589.143 267.844" stroke="white" stroke-width="3" stroke-miterlimit="10"/>
<path opacity="0.119" d="M193.299 396.823C193.299 396.823 221.826 383.006 242.676 359.685C263.526 336.364 305.476 338.572 326.921 341.278C348.366 343.984 388.341 343.609 410.587 311.743C432.833 279.877 439.727 249.787 479.412 253.473C519.097 257.159 552.176 270.461 584.342 263.038" stroke="white" stroke-width="3" stroke-miterlimit="10"/>
<path opacity="0.119" d="M188.497 392.017C188.497 392.017 217.024 378.2 237.874 354.879C258.724 331.558 300.674 333.766 322.119 336.472C343.564 339.178 383.539 338.803 405.785 306.937C428.031 275.071 434.925 244.981 474.61 248.667C514.295 252.353 547.374 265.655 579.54 258.232" stroke="white" stroke-width="3" stroke-miterlimit="10"/>
<path opacity="0.119" d="M183.695 387.212C183.695 387.212 212.222 373.395 233.072 350.074C253.922 326.753 295.872 328.961 317.317 331.667C338.762 334.373 378.737 333.998 400.983 302.132C423.229 270.266 430.123 240.176 469.808 243.862C509.493 247.548 542.572 260.85 574.738 253.427" stroke="white" stroke-width="3" stroke-miterlimit="10"/>
<path opacity="0.119" d="M178.893 382.406C178.893 382.406 207.42 368.589 228.27 345.268C249.12 321.947 291.07 324.155 312.515 326.861C333.96 329.567 373.935 329.192 396.181 297.326C418.427 265.46 425.321 235.37 465.006 239.056C504.691 242.742 537.77 256.044 569.936 248.621" stroke="white" stroke-width="3" stroke-miterlimit="10"/>
<path opacity="0.119" d="M174.092 377.6C174.092 377.6 202.619 363.783 223.469 340.462C244.319 317.141 286.269 319.349 307.714 322.055C329.159 324.761 369.134 324.386 391.38 292.52C413.626 260.654 420.52 230.564 460.205 234.25C499.89 237.936 532.969 251.238 565.135 243.815" stroke="white" stroke-width="3" stroke-miterlimit="10"/>
<path opacity="0.119" d="M169.29 372.795C169.29 372.795 197.817 358.978 218.667 335.657C239.517 312.336 281.467 314.544 302.912 317.25C324.357 319.956 364.332 319.581 386.578 287.715C408.824 255.849 415.718 225.759 455.403 229.445C495.088 233.131 528.167 246.433 560.333 239.01" stroke="white" stroke-width="3" stroke-miterlimit="10"/>
<path opacity="0.119" d="M164.488 367.989C164.488 367.989 193.015 354.172 213.865 330.851C234.715 307.53 276.665 309.738 298.11 312.444C319.555 315.15 359.53 314.775 381.776 282.909C404.022 251.043 410.916 220.953 450.601 224.639C490.286 228.325 523.365 241.627 555.531 234.204" stroke="white" stroke-width="3" stroke-miterlimit="10"/>
<path opacity="0.119" d="M159.687 363.183C159.687 363.183 188.214 349.366 209.064 326.045C229.914 302.724 271.864 304.932 293.309 307.638C314.754 310.344 354.729 309.969 376.975 278.103C399.221 246.237 406.115 216.147 445.8 219.833C485.485 223.519 518.564 236.821 550.73 229.398" stroke="white" stroke-width="3" stroke-miterlimit="10"/>
<path opacity="0.119" d="M154.885 358.378C154.885 358.378 183.412 344.561 204.262 321.24C225.112 297.919 267.062 300.127 288.507 302.833C309.952 305.539 349.927 305.164 372.173 273.298C394.419 241.432 401.313 211.342 440.998 215.028C480.683 218.714 513.762 232.016 545.928 224.593" stroke="white" stroke-width="3" stroke-miterlimit="10"/>
<path opacity="0.119" d="M150.083 353.572C150.083 353.572 178.61 339.755 199.46 316.434C220.31 293.113 262.26 295.321 283.705 298.027C305.15 300.733 345.125 300.358 367.371 268.492C389.617 236.626 396.511 206.536 436.196 210.222C475.881 213.908 508.96 227.21 541.126 219.787" stroke="white" stroke-width="3" stroke-miterlimit="10"/>
<path opacity="0.119" d="M145.282 348.766C145.282 348.766 173.809 334.949 194.659 311.628C215.509 288.307 257.459 290.515 278.904 293.221C300.349 295.927 340.324 295.552 362.57 263.686C384.816 231.82 391.71 201.73 431.395 205.416C471.08 209.102 504.159 222.404 536.325 214.981" stroke="white" stroke-width="3" stroke-miterlimit="10"/>
<path opacity="0.119" d="M140.48 343.961C140.48 343.961 169.007 330.144 189.857 306.823C210.707 283.502 252.657 285.71 274.102 288.416C295.547 291.122 335.522 290.747 357.768 258.881C380.014 227.015 386.908 196.925 426.593 200.611C466.278 204.297 499.357 217.599 531.523 210.176" stroke="white" stroke-width="3" stroke-miterlimit="10"/>
<path opacity="0.119" d="M135.678 339.155C135.678 339.155 164.205 325.338 185.055 302.017C205.905 278.696 247.855 280.904 269.3 283.61C290.745 286.316 330.72 285.941 352.966 254.075C375.212 222.209 382.106 192.119 421.791 195.805C461.476 199.491 494.555 212.793 526.721 205.37" stroke="white" stroke-width="3" stroke-miterlimit="10"/>
<path opacity="0.119" d="M130.876 334.349C130.876 334.349 159.403 320.532 180.253 297.211C201.103 273.89 243.053 276.098 264.498 278.804C285.943 281.51 325.918 281.135 348.164 249.269C370.41 217.403 377.304 187.313 416.989 190.999C456.674 194.685 489.753 207.987 521.919 200.564" stroke="white" stroke-width="3" stroke-miterlimit="10"/>
<path opacity="0.119" d="M126.075 329.544C126.075 329.544 154.602 315.727 175.452 292.406C196.302 269.085 238.252 271.293 259.697 273.999C281.142 276.705 321.117 276.33 343.363 244.464C365.609 212.598 372.503 182.508 412.188 186.194C451.873 189.88 484.952 203.182 517.118 195.759" stroke="white" stroke-width="3" stroke-miterlimit="10"/>
<path opacity="0.119" d="M121.273 324.738C121.273 324.738 149.8 310.921 170.65 287.6C191.5 264.279 233.45 266.487 254.895 269.193C276.34 271.899 316.315 271.524 338.561 239.658C360.807 207.792 367.701 177.702 407.386 181.388C447.071 185.074 480.15 198.376 512.316 190.953" stroke="white" stroke-width="3" stroke-miterlimit="10"/>
<path opacity="0.119" d="M116.471 319.932C116.471 319.932 144.998 306.115 165.848 282.794C186.698 259.473 228.648 261.681 250.093 264.387C271.538 267.093 311.513 266.718 333.759 234.852C356.005 202.986 362.899 172.896 402.584 176.582C442.269 180.268 475.348 193.57 507.514 186.147" stroke="white" stroke-width="3" stroke-miterlimit="10"/>
<path opacity="0.119" d="M111.67 315.127C111.67 315.127 140.197 301.31 161.047 277.989C181.897 254.668 223.847 256.876 245.292 259.582C266.737 262.288 306.712 261.913 328.958 230.047C351.204 198.181 358.098 168.091 397.783 171.777C437.468 175.463 470.547 188.765 502.713 181.342" stroke="white" stroke-width="3" stroke-miterlimit="10"/>
<path opacity="0.119" d="M106.868 310.321C106.868 310.321 135.395 296.504 156.245 273.183C177.095 249.862 219.045 252.07 240.49 254.776C261.935 257.482 301.91 257.107 324.156 225.241C346.402 193.375 353.296 163.285 392.981 166.971C432.666 170.657 465.745 183.959 497.911 176.536" stroke="white" stroke-width="3" stroke-miterlimit="10"/>
<path opacity="0.119" d="M102.066 305.515C102.066 305.515 130.593 291.698 151.443 268.377C172.293 245.056 214.243 247.264 235.688 249.97C257.133 252.676 297.108 252.301 319.354 220.435C341.6 188.569 348.494 158.479 388.179 162.165C427.864 165.851 460.943 179.153 493.109 171.73" stroke="white" stroke-width="3" stroke-miterlimit="10"/>
<path opacity="0.119" d="M97.265 300.71C97.265 300.71 125.792 286.893 146.642 263.572C167.492 240.251 209.442 242.459 230.887 245.165C252.332 247.871 292.307 247.496 314.553 215.63C336.799 183.764 343.693 153.674 383.378 157.36C423.063 161.046 456.142 174.348 488.308 166.925" stroke="white" stroke-width="3" stroke-miterlimit="10"/>
<path opacity="0.119" d="M92.463 295.904C92.463 295.904 120.99 282.087 141.84 258.766C162.69 235.445 204.64 237.653 226.085 240.359C247.53 243.065 287.505 242.69 309.751 210.824C331.997 178.958 338.891 148.868 378.576 152.554C418.261 156.24 451.34 169.542 483.506 162.119" stroke="white" stroke-width="3" stroke-miterlimit="10"/>
<path opacity="0.119" d="M87.6609 291.098C87.6609 291.098 116.188 277.281 137.038 253.96C157.888 230.639 199.838 232.847 221.283 235.553C242.728 238.259 282.703 237.884 304.949 206.018C327.195 174.152 334.089 144.062 373.774 147.748C413.459 151.434 446.538 164.736 478.704 157.313" stroke="white" stroke-width="3" stroke-miterlimit="10"/>
<path opacity="0.119" d="M82.8589 286.292C82.8589 286.292 111.386 272.475 132.236 249.154C153.086 225.833 195.036 228.041 216.481 230.747C237.926 233.453 277.901 233.078 300.147 201.212C322.393 169.346 329.287 139.256 368.972 142.942C408.657 146.628 441.736 159.93 473.902 152.507" stroke="white" stroke-width="3" stroke-miterlimit="10"/>
<path opacity="0.119" d="M78.058 281.487C78.058 281.487 106.585 267.67 127.435 244.349C148.285 221.028 190.235 223.236 211.68 225.942C233.125 228.648 273.1 228.273 295.346 196.407C317.592 164.541 324.486 134.451 364.171 138.137C403.856 141.823 436.935 155.125 469.101 147.702" stroke="white" stroke-width="3" stroke-miterlimit="10"/>
<path opacity="0.119" d="M73.256 276.681C73.256 276.681 101.783 262.864 122.633 239.543C143.483 216.222 185.433 218.43 206.878 221.136C228.323 223.842 268.298 223.467 290.544 191.601C312.79 159.735 319.684 129.645 359.369 133.331C399.054 137.017 432.133 150.319 464.299 142.896" stroke="white" stroke-width="3" stroke-miterlimit="10"/>
<path opacity="0.119" d="M68.454 271.875C68.454 271.875 96.981 258.058 117.831 234.737C138.681 211.416 180.631 213.624 202.076 216.33C223.521 219.036 263.496 218.661 285.742 186.795C307.988 154.929 314.882 124.839 354.567 128.525C394.252 132.211 427.331 145.513 459.497 138.09" stroke="white" stroke-width="3" stroke-miterlimit="10"/>
<path opacity="0.119" d="M63.653 267.07C63.653 267.07 92.18 253.253 113.03 229.932C133.88 206.611 175.83 208.819 197.275 211.525C218.72 214.231 258.695 213.856 280.941 181.99C303.187 150.124 310.081 120.034 349.766 123.72C389.451 127.406 422.53 140.708 454.696 133.285" stroke="white" stroke-width="3" stroke-miterlimit="10"/>
<path opacity="0.119" d="M58.851 262.264C58.851 262.264 87.378 248.447 108.228 225.126C129.078 201.805 171.028 204.013 192.473 206.719C213.918 209.425 253.893 209.05 276.139 177.184C298.385 145.318 305.279 115.228 344.964 118.914C384.649 122.6 417.728 135.902 449.894 128.479" stroke="white" stroke-width="3" stroke-miterlimit="10"/>
<path opacity="0.119" d="M54.049 257.458C54.049 257.458 82.5759 243.641 103.426 220.32C124.276 196.999 166.226 199.207 187.671 201.913C209.116 204.619 249.091 204.244 271.337 172.378C293.583 140.512 300.477 110.422 340.162 114.108C379.847 117.794 412.926 131.096 445.092 123.673" stroke="white" stroke-width="3" stroke-miterlimit="10"/>
<path opacity="0.119" d="M49.2479 252.653C49.2479 252.653 77.7749 238.836 98.6249 215.515C119.475 192.194 161.425 194.402 182.87 197.108C204.315 199.814 244.29 199.439 266.536 167.573C288.782 135.707 295.676 105.617 335.361 109.303C375.046 112.989 408.125 126.291 440.291 118.868" stroke="white" stroke-width="3" stroke-miterlimit="10"/>
<path opacity="0.119" d="M44.446 247.847C44.446 247.847 72.973 234.03 93.823 210.709C114.673 187.388 156.623 189.596 178.068 192.302C199.513 195.008 239.488 194.633 261.734 162.767C283.98 130.901 290.874 100.811 330.559 104.497C370.244 108.183 403.323 121.485 435.489 114.062" stroke="white" stroke-width="3" stroke-miterlimit="10"/>
<path opacity="0.119" d="M39.644 243.041C39.644 243.041 68.171 229.224 89.021 205.903C109.871 182.582 151.821 184.79 173.266 187.496C194.711 190.202 234.686 189.827 256.932 157.961C279.178 126.095 286.072 96.005 325.757 99.691C365.442 103.377 398.521 116.679 430.687 109.256" stroke="white" stroke-width="3" stroke-miterlimit="10"/>
<path opacity="0.119" d="M34.842 238.236C34.842 238.236 63.369 224.419 84.219 201.098C105.069 177.777 147.019 179.985 168.464 182.691C189.909 185.397 229.884 185.022 252.13 153.156C274.376 121.29 281.27 91.2 320.955 94.886C360.64 98.572 393.719 111.874 425.885 104.451" stroke="white" stroke-width="3" stroke-miterlimit="10"/>
<path opacity="0.119" d="M30.041 233.43C30.041 233.43 58.568 219.613 79.418 196.292C100.268 172.971 142.218 175.179 163.663 177.885C185.108 180.591 225.083 180.216 247.329 148.35C269.575 116.484 276.469 86.394 316.154 90.08C355.839 93.766 388.918 107.068 421.084 99.645" stroke="white" stroke-width="3" stroke-miterlimit="10"/>
<path opacity="0.119" d="M25.239 228.624C25.239 228.624 53.766 214.807 74.616 191.486C95.466 168.165 137.416 170.373 158.861 173.079C180.306 175.785 220.281 175.41 242.527 143.544C264.773 111.678 271.667 81.588 311.352 85.274C351.037 88.96 384.116 102.262 416.282 94.839" stroke="white" stroke-width="3" stroke-miterlimit="10"/>
<path opacity="0.119" d="M20.437 223.819C20.437 223.819 48.9639 210.002 69.8139 186.681C90.6639 163.36 132.614 165.568 154.059 168.274C175.504 170.98 215.479 170.605 237.725 138.739C259.971 106.873 266.865 76.783 306.55 80.469C346.235 84.155 379.314 97.457 411.48 90.034" stroke="white" stroke-width="3" stroke-miterlimit="10"/>
<path opacity="0.119" d="M15.636 219.013C15.636 219.013 44.163 205.196 65.013 181.875C85.863 158.554 127.813 160.762 149.258 163.468C170.703 166.174 210.678 165.799 232.924 133.933C255.17 102.067 262.064 71.977 301.749 75.663C341.434 79.349 374.513 92.651 406.679 85.228" stroke="white" stroke-width="3" stroke-miterlimit="10"/>
<path opacity="0.119" d="M10.834 214.207C10.834 214.207 39.361 200.39 60.211 177.069C81.061 153.748 123.011 155.956 144.456 158.662C165.901 161.368 205.876 160.993 228.122 129.127C250.368 97.261 257.262 67.171 296.947 70.857C336.632 74.543 369.711 87.845 401.877 80.422" stroke="white" stroke-width="3" stroke-miterlimit="10"/>
<path opacity="0.119" d="M6.03198 209.402C6.03198 209.402 34.559 195.585 55.409 172.264C76.259 148.943 118.209 151.151 139.654 153.857C161.099 156.563 201.074 156.188 223.32 124.322C245.566 92.456 252.46 62.366 292.145 66.052C331.83 69.738 364.909 83.04 397.075 75.617" stroke="white" stroke-width="3" stroke-miterlimit="10"/>
<path opacity="0.119" d="M1.23096 204.596C1.23096 204.596 29.758 190.779 50.608 167.458C71.458 144.137 113.408 146.345 134.853 149.051C156.298 151.757 196.273 151.382 218.519 119.516C240.765 87.65 247.659 57.56 287.344 61.246C327.029 64.932 360.108 78.234 392.274 70.811" stroke="white" stroke-width="3" stroke-miterlimit="10"/>
<path d="M63.1389 23.9059L59.9479 42.6299H65.0479L68.2479 23.9059H63.1389Z" fill="white"/>
<path d="M55.6689 23.923L50.6689 36.692L50.1359 34.764C48.5114 31.596 46.0721 28.9181 43.0689 27.006L47.6389 42.623L53.0389 42.614L61.0749 23.923H55.6689Z" fill="white"/>
<path d="M48.1999 24.767C48.075 24.2881 47.7812 23.8704 47.3727 23.5909C46.9643 23.3115 46.4686 23.189 45.9769 23.246H38.0659L37.9999 23.619C44.1569 25.113 48.2309 28.712 49.9209 33.039L48.1999 24.767Z" fill="white"/>
<path d="M78.586 27.495C79.895 27.466 81.1956 27.7102 82.405 28.212L82.866 28.429L83.556 24.371C82.0908 23.8403 80.5432 23.5738 78.985 23.584C73.944 23.584 70.389 26.124 70.361 29.763C70.328 32.452 72.893 33.954 74.83 34.85C76.818 35.769 77.485 36.35 77.476 37.173C77.46 38.426 75.89 39.001 74.424 39.001C72.7681 39.0502 71.1233 38.7148 69.619 38.021L68.961 37.721L68.244 41.913C70.0639 42.5849 71.99 42.9236 73.93 42.913C79.294 42.913 82.78 40.403 82.817 36.513C82.839 34.385 81.478 32.762 78.529 31.43C76.744 30.56 75.652 29.984 75.662 29.106C75.662 28.327 76.589 27.495 78.586 27.495Z" fill="white"/>
<path d="M87.818 42.6409H82.46L90.037 25.4809C90.2483 24.9629 90.6253 24.5294 91.1091 24.2482C91.5929 23.9671 92.1562 23.8541 92.711 23.9269H96.653L100.782 42.6389H96.048C96.04 42.6009 95.571 40.4559 95.426 39.8339H91.843H88.891C88.704 40.3109 87.909 42.4059 87.819 42.6429L87.818 42.6409ZM92.393 30.7619L92.388 30.7759C92.222 31.2049 90.752 34.9919 90.36 35.9949H94.599C94.399 35.0709 93.426 30.6329 93.416 30.5889L93.072 28.9749C92.946 29.3129 92.772 29.7519 92.64 30.1069V30.1189C92.466 30.5719 92.395 30.7569 92.396 30.7639L92.393 30.7619Z" fill="white"/>
<path opacity="0.471" d="M48.3799 167.511H49.4249C49.3663 167.093 49.2416 166.726 49.0509 166.411C48.8603 166.088 48.6219 165.821 48.3359 165.608C48.0499 165.395 47.7236 165.234 47.3569 165.124C46.9903 165.014 46.6016 164.959 46.1909 164.959C45.5896 164.959 45.0543 165.069 44.5849 165.289C44.1229 165.502 43.7343 165.795 43.4189 166.169C43.1109 166.543 42.8763 166.983 42.7149 167.489C42.5536 167.988 42.4729 168.523 42.4729 169.095C42.4729 169.667 42.5463 170.202 42.6929 170.701C42.8469 171.2 43.0743 171.632 43.3749 171.999C43.6756 172.366 44.0533 172.655 44.5079 172.868C44.9626 173.073 45.4943 173.176 46.1029 173.176C47.1076 173.176 47.8996 172.901 48.4789 172.351C49.0583 171.801 49.3993 171.031 49.5019 170.041H48.4569C48.4349 170.364 48.3689 170.664 48.2589 170.943C48.1489 171.222 47.9949 171.464 47.7969 171.669C47.6063 171.867 47.3753 172.025 47.1039 172.142C46.8399 172.252 46.5356 172.307 46.1909 172.307C45.7216 172.307 45.3183 172.219 44.9809 172.043C44.6436 171.867 44.3649 171.632 44.1449 171.339C43.9323 171.038 43.7746 170.69 43.6719 170.294C43.5693 169.891 43.5179 169.465 43.5179 169.018C43.5179 168.607 43.5693 168.211 43.6719 167.83C43.7746 167.449 43.9323 167.111 44.1449 166.818C44.3649 166.517 44.6399 166.279 44.9699 166.103C45.3073 165.927 45.7106 165.839 46.1799 165.839C46.7299 165.839 47.2029 165.978 47.5989 166.257C48.0023 166.536 48.2626 166.954 48.3799 167.511ZM52.1494 169.755L53.4804 166.092H53.5024L54.8114 169.755H52.1494ZM52.9304 165.146L49.8724 173H50.9394L51.8194 170.635H55.1414L55.9994 173H57.1544L54.0854 165.146H52.9304ZM57.9292 165.146V173H58.9742V169.645H61.5262C61.7829 169.645 61.9882 169.685 62.1422 169.766C62.2962 169.839 62.4209 169.942 62.5162 170.074C62.6116 170.199 62.6812 170.349 62.7252 170.525C62.7692 170.694 62.8059 170.873 62.8352 171.064C62.8719 171.255 62.8939 171.449 62.9012 171.647C62.9086 171.845 62.9159 172.032 62.9232 172.208C62.9306 172.377 62.9452 172.531 62.9672 172.67C62.9966 172.809 63.0479 172.919 63.1212 173H64.2872C64.1772 172.868 64.0929 172.718 64.0342 172.549C63.9829 172.373 63.9426 172.19 63.9132 171.999C63.8839 171.808 63.8656 171.614 63.8582 171.416C63.8509 171.218 63.8399 171.024 63.8252 170.833C63.8032 170.642 63.7702 170.459 63.7262 170.283C63.6896 170.107 63.6272 169.949 63.5392 169.81C63.4586 169.663 63.3449 169.539 63.1982 169.436C63.0589 169.333 62.8756 169.26 62.6482 169.216V169.194C63.1249 169.062 63.4696 168.816 63.6822 168.457C63.9022 168.098 64.0122 167.68 64.0122 167.203C64.0122 166.565 63.7996 166.063 63.3742 165.696C62.9562 165.329 62.3732 165.146 61.6252 165.146H57.9292ZM61.1522 168.765H58.9742V166.026H61.5702C62.0616 166.026 62.4172 166.151 62.6372 166.4C62.8572 166.649 62.9672 166.972 62.9672 167.368C62.9672 167.654 62.9159 167.889 62.8132 168.072C62.7179 168.248 62.5859 168.391 62.4172 168.501C62.2559 168.604 62.0652 168.673 61.8452 168.71C61.6252 168.747 61.3942 168.765 61.1522 168.765ZM66.5045 172.12V166.026H68.2645C68.7485 166.026 69.1555 166.096 69.4855 166.235C69.8155 166.367 70.0832 166.565 70.2885 166.829C70.5012 167.086 70.6515 167.401 70.7395 167.775C70.8348 168.142 70.8825 168.56 70.8825 169.029C70.8825 169.513 70.8312 169.927 70.7285 170.272C70.6332 170.609 70.5085 170.892 70.3545 171.119C70.2005 171.346 70.0245 171.526 69.8265 171.658C69.6358 171.79 69.4415 171.893 69.2435 171.966C69.0455 172.032 68.8585 172.076 68.6825 172.098C68.5065 172.113 68.3598 172.12 68.2425 172.12H66.5045ZM65.4595 165.146V173H68.1545C68.8072 173 69.3718 172.908 69.8485 172.725C70.3252 172.542 70.7175 172.278 71.0255 171.933C71.3335 171.581 71.5608 171.152 71.7075 170.646C71.8542 170.133 71.9275 169.546 71.9275 168.886C71.9275 167.625 71.6012 166.686 70.9485 166.07C70.2958 165.454 69.3645 165.146 68.1545 165.146H65.4595ZM76.2661 165.146V173H77.3111V169.403H81.4471V173H82.4921V165.146H81.4471V168.523H77.3111V165.146H76.2661ZM84.8096 169.073C84.8096 168.677 84.861 168.288 84.9636 167.907C85.0663 167.518 85.2276 167.17 85.4476 166.862C85.6676 166.554 85.95 166.308 86.2946 166.125C86.6393 165.934 87.05 165.839 87.5266 165.839C88.0033 165.839 88.414 165.934 88.7586 166.125C89.1033 166.308 89.3856 166.554 89.6056 166.862C89.8256 167.17 89.987 167.518 90.0896 167.907C90.1923 168.288 90.2436 168.677 90.2436 169.073C90.2436 169.469 90.1923 169.861 90.0896 170.25C89.987 170.631 89.8256 170.976 89.6056 171.284C89.3856 171.592 89.1033 171.841 88.7586 172.032C88.414 172.215 88.0033 172.307 87.5266 172.307C87.05 172.307 86.6393 172.215 86.2946 172.032C85.95 171.841 85.6676 171.592 85.4476 171.284C85.2276 170.976 85.0663 170.631 84.9636 170.25C84.861 169.861 84.8096 169.469 84.8096 169.073ZM83.7646 169.073C83.7646 169.608 83.8416 170.125 83.9956 170.624C84.157 171.115 84.3953 171.552 84.7106 171.933C85.026 172.314 85.4183 172.619 85.8876 172.846C86.357 173.066 86.9033 173.176 87.5266 173.176C88.15 173.176 88.6963 173.066 89.1656 172.846C89.635 172.619 90.0273 172.314 90.3426 171.933C90.658 171.552 90.8926 171.115 91.0466 170.624C91.208 170.125 91.2886 169.608 91.2886 169.073C91.2886 168.538 91.208 168.024 91.0466 167.533C90.8926 167.034 90.658 166.594 90.3426 166.213C90.0273 165.832 89.635 165.527 89.1656 165.3C88.6963 165.073 88.15 164.959 87.5266 164.959C86.9033 164.959 86.357 165.073 85.8876 165.3C85.4183 165.527 85.026 165.832 84.7106 166.213C84.3953 166.594 84.157 167.034 83.9956 167.533C83.8416 168.024 83.7646 168.538 83.7646 169.073ZM92.562 165.146V173H97.765V172.12H93.607V165.146H92.562ZM99.7193 172.12V166.026H101.479C101.963 166.026 102.37 166.096 102.7 166.235C103.03 166.367 103.298 166.565 103.503 166.829C103.716 167.086 103.866 167.401 103.954 167.775C104.05 168.142 104.097 168.56 104.097 169.029C104.097 169.513 104.046 169.927 103.943 170.272C103.848 170.609 103.723 170.892 103.569 171.119C103.415 171.346 103.239 171.526 103.041 171.658C102.851 171.79 102.656 171.893 102.458 171.966C102.26 172.032 102.073 172.076 101.897 172.098C101.721 172.113 101.575 172.12 101.457 172.12H99.7193ZM98.6743 165.146V173H101.369C102.022 173 102.587 172.908 103.063 172.725C103.54 172.542 103.932 172.278 104.24 171.933C104.548 171.581 104.776 171.152 104.922 170.646C105.069 170.133 105.142 169.546 105.142 168.886C105.142 167.625 104.816 166.686 104.163 166.07C103.511 165.454 102.579 165.146 101.369 165.146H98.6743ZM106.419 165.146V173H111.875V172.12H107.464V169.403H111.545V168.523H107.464V166.026H111.842V165.146H106.419ZM113.144 165.146V173H114.189V169.645H116.741C116.998 169.645 117.203 169.685 117.357 169.766C117.511 169.839 117.636 169.942 117.731 170.074C117.826 170.199 117.896 170.349 117.94 170.525C117.984 170.694 118.021 170.873 118.05 171.064C118.087 171.255 118.109 171.449 118.116 171.647C118.123 171.845 118.131 172.032 118.138 172.208C118.145 172.377 118.16 172.531 118.182 172.67C118.211 172.809 118.263 172.919 118.336 173H119.502C119.392 172.868 119.308 172.718 119.249 172.549C119.198 172.373 119.157 172.19 119.128 171.999C119.099 171.808 119.08 171.614 119.073 171.416C119.066 171.218 119.055 171.024 119.04 170.833C119.018 170.642 118.985 170.459 118.941 170.283C118.904 170.107 118.842 169.949 118.754 169.81C118.673 169.663 118.56 169.539 118.413 169.436C118.274 169.333 118.09 169.26 117.863 169.216V169.194C118.34 169.062 118.684 168.816 118.897 168.457C119.117 168.098 119.227 167.68 119.227 167.203C119.227 166.565 119.014 166.063 118.589 165.696C118.171 165.329 117.588 165.146 116.84 165.146H113.144ZM116.367 168.765H114.189V166.026H116.785C117.276 166.026 117.632 166.151 117.852 166.4C118.072 166.649 118.182 166.972 118.182 167.368C118.182 167.654 118.131 167.889 118.028 168.072C117.933 168.248 117.801 168.391 117.632 168.501C117.471 168.604 117.28 168.673 117.06 168.71C116.84 168.747 116.609 168.765 116.367 168.765Z" fill="white"/>
<path d="M49.3649 185.425H50.7149C50.6949 184.835 50.5799 184.33 50.3699 183.91C50.1699 183.48 49.8899 183.125 49.5299 182.845C49.1799 182.565 48.7699 182.36 48.2999 182.23C47.8299 182.1 47.3199 182.035 46.7699 182.035C46.2799 182.035 45.7999 182.1 45.3299 182.23C44.8699 182.35 44.4549 182.54 44.0849 182.8C43.7249 183.05 43.4349 183.375 43.2149 183.775C42.9949 184.165 42.8849 184.63 42.8849 185.17C42.8849 185.66 42.9799 186.07 43.1699 186.4C43.3699 186.72 43.6299 186.985 43.9499 187.195C44.2799 187.395 44.6499 187.56 45.0599 187.69C45.4699 187.81 45.8849 187.92 46.3049 188.02C46.7349 188.11 47.1549 188.2 47.5649 188.29C47.9749 188.38 48.3399 188.5 48.6599 188.65C48.9899 188.79 49.2499 188.975 49.4399 189.205C49.6399 189.435 49.7399 189.735 49.7399 190.105C49.7399 190.495 49.6599 190.815 49.4999 191.065C49.3399 191.315 49.1299 191.515 48.8699 191.665C48.6099 191.805 48.3149 191.905 47.9849 191.965C47.6649 192.025 47.3449 192.055 47.0249 192.055C46.6249 192.055 46.2349 192.005 45.8549 191.905C45.4749 191.805 45.1399 191.65 44.8499 191.44C44.5699 191.23 44.3399 190.965 44.1599 190.645C43.9899 190.315 43.9049 189.925 43.9049 189.475H42.5549C42.5549 190.125 42.6699 190.69 42.8999 191.17C43.1399 191.64 43.4599 192.03 43.8599 192.34C44.2699 192.64 44.7399 192.865 45.2699 193.015C45.8099 193.165 46.3799 193.24 46.9799 193.24C47.4699 193.24 47.9599 193.18 48.4499 193.06C48.9499 192.95 49.3999 192.77 49.7999 192.52C50.1999 192.26 50.5249 191.93 50.7749 191.53C51.0349 191.12 51.1649 190.63 51.1649 190.06C51.1649 189.53 51.0649 189.09 50.8649 188.74C50.6749 188.39 50.4149 188.1 50.0849 187.87C49.7649 187.64 49.3999 187.46 48.9899 187.33C48.5799 187.19 48.1599 187.07 47.7299 186.97C47.3099 186.87 46.8949 186.78 46.4849 186.7C46.0749 186.61 45.7049 186.5 45.3749 186.37C45.0549 186.24 44.7949 186.075 44.5949 185.875C44.4049 185.665 44.3099 185.395 44.3099 185.065C44.3099 184.715 44.3749 184.425 44.5049 184.195C44.6449 183.955 44.8249 183.765 45.0449 183.625C45.2749 183.485 45.5349 183.385 45.8249 183.325C46.1149 183.265 46.4099 183.235 46.7099 183.235C47.4499 183.235 48.0549 183.41 48.5249 183.76C49.0049 184.1 49.2849 184.655 49.3649 185.425ZM54.4565 185.245V182.92H53.1815V185.245H51.8615V186.37H53.1815V191.305C53.1815 191.665 53.2165 191.955 53.2865 192.175C53.3565 192.395 53.4615 192.565 53.6015 192.685C53.7515 192.805 53.9415 192.89 54.1715 192.94C54.4115 192.98 54.6965 193 55.0265 193H56.0015V191.875H55.4165C55.2165 191.875 55.0515 191.87 54.9215 191.86C54.8015 191.84 54.7065 191.805 54.6365 191.755C54.5665 191.705 54.5165 191.635 54.4865 191.545C54.4665 191.455 54.4565 191.335 54.4565 191.185V186.37H56.0015V185.245H54.4565ZM62.8029 188.38H58.3479C58.3679 188.08 58.4329 187.8 58.5429 187.54C58.6529 187.27 58.8029 187.035 58.9929 186.835C59.1829 186.635 59.4079 186.48 59.6679 186.37C59.9379 186.25 60.2379 186.19 60.5679 186.19C60.8879 186.19 61.1779 186.25 61.4379 186.37C61.7079 186.48 61.9379 186.635 62.1279 186.835C62.3279 187.025 62.4829 187.255 62.5929 187.525C62.7129 187.795 62.7829 188.08 62.8029 188.38ZM64.0329 190.54H62.7729C62.6629 191.05 62.4329 191.43 62.0829 191.68C61.7429 191.93 61.3029 192.055 60.7629 192.055C60.3429 192.055 59.9779 191.985 59.6679 191.845C59.3579 191.705 59.1029 191.52 58.9029 191.29C58.7029 191.05 58.5579 190.78 58.4679 190.48C58.3779 190.17 58.3379 189.845 58.3479 189.505H64.1529C64.1729 189.035 64.1279 188.54 64.0179 188.02C63.9179 187.5 63.7279 187.02 63.4479 186.58C63.1779 186.14 62.8129 185.78 62.3529 185.5C61.9029 185.21 61.3329 185.065 60.6429 185.065C60.1129 185.065 59.6229 185.165 59.1729 185.365C58.7329 185.565 58.3479 185.845 58.0179 186.205C57.6979 186.565 57.4479 186.99 57.2679 187.48C57.0879 187.97 56.9979 188.51 56.9979 189.1C57.0179 189.69 57.1029 190.235 57.2529 190.735C57.4129 191.235 57.6479 191.665 57.9579 192.025C58.2679 192.385 58.6479 192.665 59.0979 192.865C59.5579 193.065 60.0979 193.165 60.7179 193.165C61.5979 193.165 62.3279 192.945 62.9079 192.505C63.4879 192.065 63.8629 191.41 64.0329 190.54ZM65.5196 185.245V195.955H66.7946V191.965H66.8246C66.9646 192.195 67.1346 192.39 67.3346 192.55C67.5446 192.7 67.7646 192.82 67.9946 192.91C68.2246 193 68.4546 193.065 68.6846 193.105C68.9246 193.145 69.1396 193.165 69.3296 193.165C69.9196 193.165 70.4346 193.06 70.8746 192.85C71.3246 192.64 71.6946 192.355 71.9846 191.995C72.2846 191.625 72.5046 191.195 72.6446 190.705C72.7946 190.215 72.8696 189.695 72.8696 189.145C72.8696 188.595 72.7946 188.075 72.6446 187.585C72.4946 187.095 72.2696 186.665 71.9696 186.295C71.6796 185.915 71.3096 185.615 70.8596 185.395C70.4196 185.175 69.8996 185.065 69.2996 185.065C68.7596 185.065 68.2646 185.165 67.8146 185.365C67.3646 185.555 67.0346 185.865 66.8246 186.295H66.7946V185.245H65.5196ZM71.5196 189.055C71.5196 189.435 71.4796 189.805 71.3996 190.165C71.3196 190.525 71.1896 190.845 71.0096 191.125C70.8296 191.405 70.5896 191.63 70.2896 191.8C69.9996 191.97 69.6346 192.055 69.1946 192.055C68.7546 192.055 68.3796 191.975 68.0696 191.815C67.7596 191.645 67.5046 191.425 67.3046 191.155C67.1146 190.885 66.9746 190.575 66.8846 190.225C66.7946 189.865 66.7496 189.495 66.7496 189.115C66.7496 188.755 66.7896 188.4 66.8696 188.05C66.9596 187.7 67.0996 187.39 67.2896 187.12C67.4796 186.84 67.7246 186.615 68.0246 186.445C68.3246 186.275 68.6896 186.19 69.1196 186.19C69.5296 186.19 69.8846 186.27 70.1846 186.43C70.4946 186.59 70.7446 186.805 70.9346 187.075C71.1346 187.345 71.2796 187.655 71.3696 188.005C71.4696 188.345 71.5196 188.695 71.5196 189.055ZM74.3662 182.29V193H75.6412V188.62C75.6412 188.27 75.6862 187.95 75.7762 187.66C75.8762 187.36 76.0212 187.1 76.2112 186.88C76.4012 186.66 76.6362 186.49 76.9162 186.37C77.2062 186.25 77.5462 186.19 77.9362 186.19C78.4262 186.19 78.8112 186.33 79.0912 186.61C79.3712 186.89 79.5112 187.27 79.5112 187.75V193H80.7862V187.9C80.7862 187.48 80.7412 187.1 80.6512 186.76C80.5712 186.41 80.4262 186.11 80.2162 185.86C80.0062 185.61 79.7312 185.415 79.3912 185.275C79.0512 185.135 78.6262 185.065 78.1162 185.065C77.8862 185.065 77.6462 185.09 77.3962 185.14C77.1562 185.19 76.9212 185.27 76.6912 185.38C76.4712 185.48 76.2712 185.615 76.0912 185.785C75.9112 185.945 75.7712 186.145 75.6712 186.385H75.6412V182.29H74.3662ZM88.0862 188.38H83.6311C83.6511 188.08 83.7162 187.8 83.8262 187.54C83.9362 187.27 84.0862 187.035 84.2762 186.835C84.4662 186.635 84.6912 186.48 84.9512 186.37C85.2212 186.25 85.5212 186.19 85.8512 186.19C86.1712 186.19 86.4612 186.25 86.7212 186.37C86.9912 186.48 87.2212 186.635 87.4112 186.835C87.6112 187.025 87.7662 187.255 87.8762 187.525C87.9962 187.795 88.0662 188.08 88.0862 188.38ZM89.3161 190.54H88.0562C87.9462 191.05 87.7162 191.43 87.3662 191.68C87.0262 191.93 86.5862 192.055 86.0461 192.055C85.6261 192.055 85.2612 191.985 84.9512 191.845C84.6412 191.705 84.3862 191.52 84.1861 191.29C83.9861 191.05 83.8411 190.78 83.7511 190.48C83.6611 190.17 83.6211 189.845 83.6311 189.505H89.4362C89.4562 189.035 89.4112 188.54 89.3012 188.02C89.2012 187.5 89.0112 187.02 88.7312 186.58C88.4612 186.14 88.0962 185.78 87.6362 185.5C87.1862 185.21 86.6162 185.065 85.9262 185.065C85.3962 185.065 84.9062 185.165 84.4562 185.365C84.0162 185.565 83.6312 185.845 83.3011 186.205C82.9811 186.565 82.7311 186.99 82.5511 187.48C82.3711 187.97 82.2811 188.51 82.2811 189.1C82.3011 189.69 82.3861 190.235 82.5361 190.735C82.6961 191.235 82.9311 191.665 83.2411 192.025C83.5512 192.385 83.9312 192.665 84.3812 192.865C84.8412 193.065 85.3812 193.165 86.0012 193.165C86.8812 193.165 87.6112 192.945 88.1912 192.505C88.7712 192.065 89.1462 191.41 89.3161 190.54ZM90.7578 185.245V193H92.0328V188.62C92.0328 188.27 92.0778 187.95 92.1678 187.66C92.2678 187.36 92.4128 187.1 92.6028 186.88C92.7928 186.66 93.0278 186.49 93.3078 186.37C93.5978 186.25 93.9378 186.19 94.3278 186.19C94.8178 186.19 95.2028 186.33 95.4828 186.61C95.7628 186.89 95.9028 187.27 95.9028 187.75V193H97.1778V187.9C97.1778 187.48 97.1328 187.1 97.0428 186.76C96.9628 186.41 96.8178 186.11 96.6078 185.86C96.3978 185.61 96.1228 185.415 95.7828 185.275C95.4428 185.135 95.0178 185.065 94.5078 185.065C93.3578 185.065 92.5178 185.535 91.9878 186.475H91.9578V185.245H90.7578ZM105.323 188.575L107.138 183.58H107.168L108.953 188.575H105.323ZM106.388 182.29L102.218 193H103.673L104.873 189.775H109.403L110.573 193H112.148L107.963 182.29H106.388ZM119.414 193V185.245H118.139V189.625C118.139 189.975 118.089 190.3 117.989 190.6C117.899 190.89 117.759 191.145 117.569 191.365C117.379 191.585 117.139 191.755 116.849 191.875C116.569 191.995 116.234 192.055 115.844 192.055C115.354 192.055 114.969 191.915 114.689 191.635C114.409 191.355 114.269 190.975 114.269 190.495V185.245H112.994V190.345C112.994 190.765 113.034 191.15 113.114 191.5C113.204 191.84 113.354 192.135 113.564 192.385C113.774 192.635 114.049 192.83 114.389 192.97C114.729 193.1 115.154 193.165 115.664 193.165C116.234 193.165 116.729 193.055 117.149 192.835C117.569 192.605 117.914 192.25 118.184 191.77H118.214V193H119.414ZM122.109 190.555H120.834C120.854 191.035 120.954 191.445 121.134 191.785C121.314 192.115 121.554 192.385 121.854 192.595C122.154 192.795 122.499 192.94 122.889 193.03C123.279 193.12 123.689 193.165 124.119 193.165C124.509 193.165 124.899 193.125 125.289 193.045C125.689 192.975 126.044 192.845 126.354 192.655C126.674 192.465 126.929 192.215 127.119 191.905C127.319 191.595 127.419 191.205 127.419 190.735C127.419 190.365 127.344 190.055 127.194 189.805C127.054 189.555 126.864 189.35 126.624 189.19C126.394 189.02 126.124 188.885 125.814 188.785C125.514 188.685 125.204 188.6 124.884 188.53C124.584 188.46 124.284 188.395 123.984 188.335C123.684 188.265 123.414 188.185 123.174 188.095C122.934 187.995 122.734 187.875 122.574 187.735C122.424 187.585 122.349 187.4 122.349 187.18C122.349 186.98 122.399 186.82 122.499 186.7C122.599 186.57 122.729 186.47 122.889 186.4C123.049 186.32 123.224 186.265 123.414 186.235C123.614 186.205 123.809 186.19 123.999 186.19C124.209 186.19 124.414 186.215 124.614 186.265C124.824 186.305 125.014 186.375 125.184 186.475C125.354 186.575 125.494 186.71 125.604 186.88C125.714 187.04 125.779 187.245 125.799 187.495H127.074C127.044 187.025 126.944 186.635 126.774 186.325C126.604 186.005 126.374 185.755 126.084 185.575C125.804 185.385 125.479 185.255 125.109 185.185C124.739 185.105 124.334 185.065 123.894 185.065C123.554 185.065 123.209 185.11 122.859 185.2C122.519 185.28 122.209 185.41 121.929 185.59C121.659 185.76 121.434 185.985 121.254 186.265C121.084 186.545 120.999 186.88 120.999 187.27C120.999 187.77 121.124 188.16 121.374 188.44C121.624 188.72 121.934 188.94 122.304 189.1C122.684 189.25 123.094 189.37 123.534 189.46C123.974 189.54 124.379 189.635 124.749 189.745C125.129 189.845 125.444 189.98 125.694 190.15C125.944 190.32 126.069 190.57 126.069 190.9C126.069 191.14 126.009 191.34 125.889 191.5C125.769 191.65 125.614 191.765 125.424 191.845C125.244 191.925 125.044 191.98 124.824 192.01C124.604 192.04 124.394 192.055 124.194 192.055C123.934 192.055 123.679 192.03 123.429 191.98C123.189 191.93 122.969 191.85 122.769 191.74C122.579 191.62 122.424 191.465 122.304 191.275C122.184 191.075 122.119 190.835 122.109 190.555ZM130.599 185.245V182.92H129.324V185.245H128.004V186.37H129.324V191.305C129.324 191.665 129.359 191.955 129.429 192.175C129.499 192.395 129.604 192.565 129.744 192.685C129.894 192.805 130.084 192.89 130.314 192.94C130.554 192.98 130.839 193 131.169 193H132.144V191.875H131.559C131.359 191.875 131.194 191.87 131.064 191.86C130.944 191.84 130.849 191.805 130.779 191.755C130.709 191.705 130.659 191.635 130.629 191.545C130.609 191.455 130.599 191.335 130.599 191.185V186.37H132.144V185.245H130.599ZM134.911 183.85V182.29H133.636V183.85H134.911ZM133.636 185.245V193H134.911V185.245H133.636ZM136.886 185.245V193H138.161V188.62C138.161 188.27 138.206 187.95 138.296 187.66C138.396 187.36 138.541 187.1 138.731 186.88C138.921 186.66 139.156 186.49 139.436 186.37C139.726 186.25 140.066 186.19 140.456 186.19C140.946 186.19 141.331 186.33 141.611 186.61C141.891 186.89 142.031 187.27 142.031 187.75V193H143.306V187.9C143.306 187.48 143.261 187.1 143.171 186.76C143.091 186.41 142.946 186.11 142.736 185.86C142.526 185.61 142.251 185.415 141.911 185.275C141.571 185.135 141.146 185.065 140.636 185.065C139.486 185.065 138.646 185.535 138.116 186.475H138.086V185.245H136.886Z" fill="white"/>
<path opacity="0.471" d="M299.106 173L301.9 165.146H300.811L298.545 171.955H298.523L296.279 165.146H295.157L297.918 173H299.106ZM303.588 169.755L304.919 166.092H304.941L306.25 169.755H303.588ZM304.369 165.146L301.311 173H302.378L303.258 170.635H306.58L307.438 173H308.593L305.524 165.146H304.369ZM309.368 165.146V173H314.571V172.12H310.413V165.146H309.368ZM315.524 165.146V173H316.569V165.146H315.524ZM319.372 172.12V166.026H321.132C321.616 166.026 322.023 166.096 322.353 166.235C322.683 166.367 322.95 166.565 323.156 166.829C323.368 167.086 323.519 167.401 323.607 167.775C323.702 168.142 323.75 168.56 323.75 169.029C323.75 169.513 323.698 169.927 323.596 170.272C323.5 170.609 323.376 170.892 323.222 171.119C323.068 171.346 322.892 171.526 322.694 171.658C322.503 171.79 322.309 171.893 322.111 171.966C321.913 172.032 321.726 172.076 321.55 172.098C321.374 172.113 321.227 172.12 321.11 172.12H319.372ZM318.327 165.146V173H321.022C321.674 173 322.239 172.908 322.716 172.725C323.192 172.542 323.585 172.278 323.893 171.933C324.201 171.581 324.428 171.152 324.575 170.646C324.721 170.133 324.795 169.546 324.795 168.886C324.795 167.625 324.468 166.686 323.816 166.07C323.163 165.454 322.232 165.146 321.022 165.146H318.327ZM330.915 166.026V173H331.96V166.026H334.578V165.146H328.297V166.026H330.915ZM335.45 165.146V173H336.495V169.403H340.631V173H341.676V165.146H340.631V168.523H336.495V165.146H335.45ZM343.388 165.146V173H344.433V169.645H346.985C347.242 169.645 347.447 169.685 347.601 169.766C347.755 169.839 347.88 169.942 347.975 170.074C348.07 170.199 348.14 170.349 348.184 170.525C348.228 170.694 348.265 170.873 348.294 171.064C348.331 171.255 348.353 171.449 348.36 171.647C348.367 171.845 348.375 172.032 348.382 172.208C348.389 172.377 348.404 172.531 348.426 172.67C348.455 172.809 348.507 172.919 348.58 173H349.746C349.636 172.868 349.552 172.718 349.493 172.549C349.442 172.373 349.401 172.19 349.372 171.999C349.343 171.808 349.324 171.614 349.317 171.416C349.31 171.218 349.299 171.024 349.284 170.833C349.262 170.642 349.229 170.459 349.185 170.283C349.148 170.107 349.086 169.949 348.998 169.81C348.917 169.663 348.804 169.539 348.657 169.436C348.518 169.333 348.334 169.26 348.107 169.216V169.194C348.584 169.062 348.928 168.816 349.141 168.457C349.361 168.098 349.471 167.68 349.471 167.203C349.471 166.565 349.258 166.063 348.833 165.696C348.415 165.329 347.832 165.146 347.084 165.146H343.388ZM346.611 168.765H344.433V166.026H347.029C347.52 166.026 347.876 166.151 348.096 166.4C348.316 166.649 348.426 166.972 348.426 167.368C348.426 167.654 348.375 167.889 348.272 168.072C348.177 168.248 348.045 168.391 347.876 168.501C347.715 168.604 347.524 168.673 347.304 168.71C347.084 168.747 346.853 168.765 346.611 168.765ZM357.188 170.162V165.146H356.143V170.162C356.143 170.866 355.967 171.401 355.615 171.768C355.271 172.127 354.765 172.307 354.097 172.307C353.393 172.307 352.854 172.127 352.48 171.768C352.106 171.401 351.919 170.866 351.919 170.162V165.146H350.874V170.162C350.874 171.211 351.157 171.977 351.721 172.461C352.293 172.938 353.085 173.176 354.097 173.176C355.087 173.176 355.85 172.927 356.385 172.428C356.921 171.922 357.188 171.167 357.188 170.162Z" fill="white"/>
<path d="M314.285 187.765C314.285 187.505 314.285 187.22 314.285 186.91C314.295 186.59 314.32 186.275 314.36 185.965C314.41 185.645 314.475 185.335 314.555 185.035C314.645 184.735 314.77 184.475 314.93 184.255C315.1 184.025 315.31 183.84 315.56 183.7C315.81 183.56 316.115 183.49 316.475 183.49C316.835 183.49 317.14 183.56 317.39 183.7C317.64 183.84 317.845 184.025 318.005 184.255C318.175 184.475 318.3 184.735 318.38 185.035C318.47 185.335 318.535 185.645 318.575 185.965C318.625 186.275 318.65 186.59 318.65 186.91C318.66 187.22 318.665 187.505 318.665 187.765C318.665 188.165 318.65 188.615 318.62 189.115C318.6 189.605 318.52 190.07 318.38 190.51C318.25 190.94 318.035 191.305 317.735 191.605C317.435 191.905 317.015 192.055 316.475 192.055C315.935 192.055 315.515 191.905 315.215 191.605C314.915 191.305 314.695 190.94 314.555 190.51C314.425 190.07 314.345 189.605 314.315 189.115C314.295 188.615 314.285 188.165 314.285 187.765ZM312.935 187.78C312.935 188.17 312.945 188.575 312.965 188.995C312.985 189.415 313.035 189.825 313.115 190.225C313.195 190.625 313.31 191.005 313.46 191.365C313.61 191.715 313.815 192.025 314.075 192.295C314.335 192.565 314.66 192.78 315.05 192.94C315.45 193.09 315.925 193.165 316.475 193.165C317.035 193.165 317.51 193.09 317.9 192.94C318.29 192.78 318.615 192.565 318.875 192.295C319.135 192.025 319.34 191.715 319.49 191.365C319.64 191.005 319.755 190.625 319.835 190.225C319.915 189.825 319.965 189.415 319.985 188.995C320.005 188.575 320.015 188.17 320.015 187.78C320.015 187.39 320.005 186.985 319.985 186.565C319.965 186.145 319.915 185.735 319.835 185.335C319.755 184.935 319.64 184.555 319.49 184.195C319.34 183.835 319.135 183.52 318.875 183.25C318.615 182.98 318.285 182.765 317.885 182.605C317.495 182.445 317.025 182.365 316.475 182.365C315.925 182.365 315.45 182.445 315.05 182.605C314.66 182.765 314.335 182.98 314.075 183.25C313.815 183.52 313.61 183.835 313.46 184.195C313.31 184.555 313.195 184.935 313.115 185.335C313.035 185.735 312.985 186.145 312.965 186.565C312.945 186.985 312.935 187.39 312.935 187.78ZM325.725 189.385H322.155L325.695 184.18H325.725V189.385ZM326.925 189.385V182.365H325.905L321.06 189.28V190.51H325.725V193H326.925V190.51H328.365V189.385H326.925ZM337.32 182.035L332.895 193.24H333.975L338.415 182.035H337.32ZM342.98 186.13H344.255C344.245 185.81 344.275 185.495 344.345 185.185C344.425 184.865 344.55 184.58 344.72 184.33C344.89 184.08 345.105 183.88 345.365 183.73C345.635 183.57 345.955 183.49 346.325 183.49C346.605 183.49 346.87 183.535 347.12 183.625C347.37 183.715 347.585 183.845 347.765 184.015C347.955 184.185 348.105 184.39 348.215 184.63C348.325 184.86 348.38 185.12 348.38 185.41C348.38 185.78 348.32 186.105 348.2 186.385C348.09 186.665 347.92 186.925 347.69 187.165C347.47 187.405 347.19 187.645 346.85 187.885C346.51 188.115 346.115 188.37 345.665 188.65C345.295 188.87 344.94 189.105 344.6 189.355C344.26 189.605 343.955 189.895 343.685 190.225C343.415 190.555 343.19 190.945 343.01 191.395C342.84 191.835 342.73 192.37 342.68 193H349.625V191.875H344.165C344.225 191.545 344.35 191.255 344.54 191.005C344.74 190.745 344.975 190.505 345.245 190.285C345.525 190.065 345.83 189.86 346.16 189.67C346.49 189.47 346.82 189.27 347.15 189.07C347.48 188.86 347.8 188.64 348.11 188.41C348.42 188.18 348.695 187.925 348.935 187.645C349.175 187.355 349.365 187.03 349.505 186.67C349.655 186.31 349.73 185.895 349.73 185.425C349.73 184.925 349.64 184.485 349.46 184.105C349.29 183.725 349.055 183.41 348.755 183.16C348.455 182.9 348.1 182.705 347.69 182.575C347.29 182.435 346.86 182.365 346.4 182.365C345.84 182.365 345.34 182.46 344.9 182.65C344.46 182.84 344.09 183.105 343.79 183.445C343.5 183.775 343.285 184.17 343.145 184.63C343.005 185.09 342.95 185.59 342.98 186.13ZM355.995 193V182.365H355.02C354.95 182.765 354.82 183.095 354.63 183.355C354.44 183.615 354.205 183.82 353.925 183.97C353.655 184.12 353.35 184.225 353.01 184.285C352.67 184.335 352.32 184.36 351.96 184.36V185.38H354.72V193H355.995Z" fill="white"/>
<path d="M49.0999 127.074C49.3459 127.336 49.5459 127.55 49.6909 127.716L48.0999 128.692L46.7059 126.549C46.2809 127.249 45.7989 127.984 45.2479 128.774L43.6819 127.644C44.1819 127.122 44.6989 126.63 45.2469 126.144C45.4629 125.958 45.6049 125.829 45.6559 125.78C45.4839 125.749 44.9819 125.645 44.1649 125.453C43.5749 125.316 43.1839 125.222 42.9999 125.153L43.6329 123.453C44.4673 123.763 45.2747 124.141 46.0469 124.584C45.9009 123.73 45.8183 122.866 45.7999 122H47.6319C47.5898 122.872 47.4953 123.74 47.3489 124.6C47.4909 124.547 47.7819 124.423 48.2399 124.223C48.8633 123.956 49.4386 123.731 49.9659 123.546L50.5199 125.3C49.7549 125.457 48.8519 125.618 47.8439 125.772L49.0999 127.074Z" fill="white"/>
<path d="M63.1369 127.074C63.3829 127.336 63.5829 127.55 63.7279 127.716L62.1369 128.692L60.7429 126.549C60.3179 127.249 59.8359 127.984 59.2849 128.774L57.7189 127.644C58.2189 127.122 58.7359 126.63 59.2839 126.144C59.4999 125.958 59.6419 125.829 59.6929 125.78C59.5209 125.749 59.0189 125.645 58.2019 125.453C57.6119 125.316 57.2209 125.222 57.0369 125.153L57.6699 123.453C58.5043 123.763 59.3116 124.141 60.0839 124.584C59.9379 123.73 59.8553 122.866 59.8369 122H61.6689C61.6267 122.872 61.5322 123.74 61.3859 124.6C61.5279 124.547 61.8189 124.423 62.2769 124.223C62.9003 123.956 63.4756 123.731 64.0029 123.546L64.5569 125.3C63.7919 125.457 62.8889 125.618 61.8809 125.772L63.1369 127.074Z" fill="white"/>
<path d="M77.1739 127.074C77.4199 127.336 77.6199 127.55 77.7649 127.716L76.1739 128.692L74.7799 126.549C74.3549 127.249 73.8729 127.984 73.3219 128.774L71.7559 127.644C72.2559 127.122 72.7729 126.63 73.3209 126.144C73.5369 125.958 73.6789 125.829 73.7299 125.78C73.5579 125.749 73.0559 125.645 72.2389 125.453C71.6489 125.316 71.2579 125.222 71.0739 125.153L71.7069 123.453C72.5412 123.763 73.3486 124.141 74.1209 124.584C73.9749 123.73 73.8923 122.866 73.8739 122H75.7059C75.6637 122.872 75.5692 123.74 75.4229 124.6C75.5649 124.547 75.8559 124.423 76.3139 124.223C76.9372 123.956 77.5126 123.731 78.0399 123.546L78.5939 125.3C77.8289 125.457 76.9259 125.618 75.9179 125.772L77.1739 127.074Z" fill="white"/>
<path d="M91.211 127.074C91.457 127.336 91.657 127.55 91.802 127.716L90.211 128.692L88.817 126.549C88.392 127.249 87.91 127.984 87.359 128.774L85.793 127.644C86.293 127.122 86.81 126.63 87.358 126.144C87.574 125.958 87.716 125.829 87.767 125.78C87.595 125.749 87.093 125.645 86.276 125.453C85.686 125.316 85.295 125.222 85.111 125.153L85.744 123.453C86.5783 123.763 87.3857 124.141 88.158 124.584C88.0119 123.73 87.9294 122.866 87.911 122H89.743C89.7008 122.872 89.6063 123.74 89.46 124.6C89.602 124.547 89.893 124.423 90.351 124.223C90.9743 123.956 91.5496 123.731 92.077 123.546L92.631 125.3C91.866 125.457 90.963 125.618 89.955 125.772L91.211 127.074Z" fill="white"/>
<path d="M118.784 127.074C119.03 127.336 119.23 127.55 119.375 127.716L117.784 128.692L116.39 126.549C115.965 127.249 115.483 127.984 114.932 128.774L113.366 127.644C113.866 127.122 114.383 126.63 114.931 126.144C115.147 125.958 115.289 125.829 115.34 125.78C115.168 125.749 114.666 125.645 113.849 125.453C113.259 125.316 112.868 125.222 112.684 125.153L113.317 123.453C114.151 123.763 114.959 124.141 115.731 124.584C115.585 123.73 115.502 122.866 115.484 122H117.316C117.274 122.872 117.179 123.74 117.033 124.6C117.175 124.547 117.466 124.423 117.924 124.223C118.547 123.956 119.123 123.731 119.65 123.546L120.204 125.3C119.439 125.457 118.536 125.618 117.528 125.772L118.784 127.074Z" fill="white"/>
<path d="M132.821 127.074C133.067 127.336 133.267 127.55 133.412 127.716L131.821 128.692L130.427 126.549C130.002 127.249 129.52 127.984 128.969 128.774L127.403 127.644C127.903 127.122 128.42 126.63 128.968 126.144C129.184 125.958 129.326 125.829 129.377 125.78C129.205 125.749 128.703 125.645 127.886 125.453C127.296 125.316 126.905 125.222 126.721 125.153L127.354 123.453C128.188 123.763 128.996 124.141 129.768 124.584C129.622 123.73 129.539 122.866 129.521 122H131.353C131.311 122.872 131.216 123.74 131.07 124.6C131.212 124.547 131.503 124.423 131.961 124.223C132.584 123.956 133.16 123.731 133.687 123.546L134.241 125.3C133.476 125.457 132.573 125.618 131.565 125.772L132.821 127.074Z" fill="white"/>
<path d="M146.859 127.074C147.105 127.336 147.305 127.55 147.45 127.716L145.859 128.692L144.465 126.549C144.04 127.249 143.558 127.984 143.007 128.774L141.441 127.644C141.941 127.122 142.458 126.63 143.006 126.144C143.222 125.958 143.364 125.829 143.415 125.78C143.243 125.749 142.741 125.645 141.924 125.453C141.334 125.316 140.943 125.222 140.759 125.153L141.392 123.453C142.226 123.763 143.034 124.141 143.806 124.584C143.66 123.73 143.577 122.866 143.559 122H145.391C145.349 122.872 145.254 123.74 145.108 124.6C145.25 124.547 145.541 124.423 145.999 124.223C146.622 123.956 147.198 123.731 147.725 123.546L148.279 125.3C147.514 125.457 146.611 125.618 145.603 125.772L146.859 127.074Z" fill="white"/>
<path d="M160.896 127.074C161.142 127.336 161.342 127.55 161.487 127.716L159.896 128.692L158.502 126.549C158.077 127.249 157.595 127.984 157.044 128.774L155.478 127.644C155.978 127.122 156.495 126.63 157.043 126.144C157.259 125.958 157.401 125.829 157.452 125.78C157.28 125.749 156.778 125.645 155.961 125.453C155.371 125.316 154.98 125.222 154.796 125.153L155.429 123.453C156.263 123.763 157.071 124.141 157.843 124.584C157.697 123.73 157.614 122.866 157.596 122H159.428C159.386 122.872 159.291 123.74 159.145 124.6C159.287 124.547 159.578 124.423 160.036 124.223C160.659 123.956 161.235 123.731 161.762 123.546L162.316 125.3C161.551 125.457 160.648 125.618 159.64 125.772L160.896 127.074Z" fill="white"/>
<path d="M188.469 127.074C188.715 127.336 188.915 127.55 189.06 127.716L187.469 128.692L186.075 126.549C185.65 127.249 185.168 127.984 184.617 128.774L183.051 127.644C183.551 127.122 184.068 126.63 184.616 126.144C184.832 125.958 184.974 125.829 185.025 125.78C184.853 125.749 184.351 125.645 183.534 125.453C182.944 125.316 182.553 125.222 182.369 125.153L183.002 123.453C183.836 123.763 184.644 124.141 185.416 124.584C185.27 123.73 185.187 122.866 185.169 122H187.001C186.959 122.872 186.864 123.74 186.718 124.6C186.86 124.547 187.151 124.423 187.609 124.223C188.232 123.956 188.808 123.731 189.335 123.546L189.889 125.3C189.124 125.457 188.221 125.618 187.213 125.772L188.469 127.074Z" fill="white"/>
<path d="M202.506 127.074C202.752 127.336 202.952 127.55 203.097 127.716L201.506 128.692L200.112 126.549C199.687 127.249 199.205 127.984 198.654 128.774L197.088 127.644C197.588 127.122 198.105 126.63 198.653 126.144C198.869 125.958 199.011 125.829 199.062 125.78C198.89 125.749 198.388 125.645 197.571 125.453C196.981 125.316 196.59 125.222 196.406 125.153L197.039 123.453C197.873 123.763 198.681 124.141 199.453 124.584C199.307 123.73 199.224 122.866 199.206 122H201.038C200.996 122.872 200.901 123.74 200.755 124.6C200.897 124.547 201.188 124.423 201.646 124.223C202.269 123.956 202.845 123.731 203.372 123.546L203.926 125.3C203.161 125.457 202.258 125.618 201.25 125.772L202.506 127.074Z" fill="white"/>
<path d="M216.543 127.074C216.789 127.336 216.989 127.55 217.134 127.716L215.543 128.692L214.149 126.549C213.724 127.249 213.242 127.984 212.691 128.774L211.125 127.644C211.625 127.122 212.142 126.63 212.69 126.144C212.906 125.958 213.048 125.829 213.099 125.78C212.927 125.749 212.425 125.645 211.608 125.453C211.018 125.316 210.627 125.222 210.443 125.153L211.076 123.453C211.91 123.763 212.718 124.141 213.49 124.584C213.344 123.73 213.261 122.866 213.243 122H215.075C215.033 122.872 214.938 123.74 214.792 124.6C214.934 124.547 215.225 124.423 215.683 124.223C216.306 123.956 216.882 123.731 217.409 123.546L217.963 125.3C217.198 125.457 216.295 125.618 215.287 125.772L216.543 127.074Z" fill="white"/>
<path d="M230.58 127.074C230.826 127.336 231.026 127.55 231.171 127.716L229.58 128.692L228.186 126.549C227.761 127.249 227.279 127.984 226.728 128.774L225.162 127.644C225.662 127.122 226.179 126.63 226.727 126.144C226.943 125.958 227.085 125.829 227.136 125.78C226.964 125.749 226.462 125.645 225.645 125.453C225.055 125.316 224.664 125.222 224.48 125.153L225.113 123.453C225.947 123.763 226.755 124.141 227.527 124.584C227.381 123.73 227.298 122.866 227.28 122H229.112C229.07 122.872 228.975 123.74 228.829 124.6C228.971 124.547 229.262 124.423 229.72 124.223C230.343 123.956 230.919 123.731 231.446 123.546L232 125.3C231.235 125.457 230.332 125.618 229.324 125.772L230.58 127.074Z" fill="white"/>
<path d="M256.413 127.233H250.827L256.371 119.232H256.413V127.233ZM249.63 127.065V128.346H256.413V132H257.631V128.346H259.836V127.233H257.631V117.3H256.434L249.63 127.065ZM261.74 117.489V118.707H269.867C268.845 119.869 267.97 120.982 267.242 122.046C266.528 123.11 265.926 124.174 265.436 125.238C264.96 126.288 264.589 127.366 264.323 128.472C264.071 129.578 263.903 130.754 263.819 132H265.247C265.331 130.292 265.597 128.731 266.045 127.317C266.507 125.889 267.039 124.622 267.641 123.516C268.257 122.396 268.887 121.437 269.531 120.639C270.175 119.827 270.728 119.183 271.19 118.707V117.489H261.74ZM281.62 121.017H282.943C282.789 119.715 282.327 118.749 281.557 118.119C280.787 117.489 279.744 117.174 278.428 117.174C277.63 117.174 276.944 117.314 276.37 117.594C275.796 117.874 275.313 118.238 274.921 118.686C274.543 119.134 274.235 119.638 273.997 120.198C273.773 120.744 273.598 121.29 273.472 121.836C273.346 122.368 273.262 122.872 273.22 123.348C273.192 123.824 273.178 124.209 273.178 124.503C273.178 125.945 273.276 127.163 273.472 128.157C273.682 129.137 273.997 129.935 274.417 130.551C274.837 131.167 275.369 131.615 276.013 131.895C276.657 132.161 277.427 132.294 278.323 132.294C279.051 132.294 279.716 132.175 280.318 131.937C280.934 131.685 281.459 131.342 281.893 130.908C282.341 130.46 282.684 129.935 282.922 129.333C283.174 128.717 283.3 128.052 283.3 127.338C283.3 126.624 283.181 125.966 282.943 125.364C282.719 124.762 282.397 124.244 281.977 123.81C281.557 123.376 281.046 123.04 280.444 122.802C279.856 122.55 279.191 122.424 278.449 122.424C277.609 122.424 276.832 122.648 276.118 123.096C275.418 123.544 274.893 124.132 274.543 124.86H274.501C274.501 124.188 274.55 123.474 274.648 122.718C274.746 121.948 274.942 121.234 275.236 120.576C275.53 119.918 275.943 119.372 276.475 118.938C277.007 118.504 277.7 118.287 278.554 118.287C279.408 118.287 280.101 118.539 280.633 119.043C281.179 119.547 281.508 120.205 281.62 121.017ZM278.428 123.537C278.988 123.537 279.485 123.642 279.919 123.852C280.367 124.048 280.738 124.321 281.032 124.671C281.34 125.021 281.571 125.434 281.725 125.91C281.893 126.386 281.977 126.89 281.977 127.422C281.977 127.926 281.893 128.409 281.725 128.871C281.557 129.333 281.312 129.739 280.99 130.089C280.682 130.425 280.311 130.698 279.877 130.908C279.457 131.104 278.981 131.202 278.449 131.202C277.805 131.202 277.252 131.104 276.79 130.908C276.328 130.712 275.943 130.446 275.635 130.11C275.341 129.76 275.124 129.354 274.984 128.892C274.844 128.43 274.774 127.94 274.774 127.422C274.774 126.876 274.851 126.372 275.005 125.91C275.173 125.434 275.411 125.021 275.719 124.671C276.041 124.321 276.426 124.048 276.874 123.852C277.336 123.642 277.854 123.537 278.428 123.537ZM286.086 127.8H284.763C284.777 128.5 284.91 129.13 285.162 129.69C285.414 130.25 285.75 130.726 286.17 131.118C286.604 131.496 287.108 131.79 287.682 132C288.27 132.196 288.907 132.294 289.593 132.294C290.293 132.294 290.951 132.175 291.567 131.937C292.197 131.685 292.743 131.342 293.205 130.908C293.667 130.46 294.031 129.935 294.297 129.333C294.563 128.717 294.696 128.052 294.696 127.338C294.696 126.596 294.577 125.917 294.339 125.301C294.115 124.671 293.786 124.132 293.352 123.684C292.932 123.236 292.414 122.886 291.798 122.634C291.196 122.382 290.517 122.256 289.761 122.256C289.173 122.256 288.599 122.375 288.039 122.613C287.479 122.851 287.017 123.187 286.653 123.621L286.611 123.579L287.556 118.707H293.982V117.489H286.632L285.204 125.112H286.338C286.702 124.552 287.171 124.125 287.745 123.831C288.319 123.523 288.942 123.369 289.614 123.369C290.16 123.369 290.664 123.467 291.126 123.663C291.588 123.859 291.98 124.132 292.302 124.482C292.638 124.818 292.897 125.217 293.079 125.679C293.275 126.141 293.373 126.645 293.373 127.191C293.373 127.723 293.289 128.234 293.121 128.724C292.953 129.2 292.708 129.627 292.386 130.005C292.064 130.369 291.679 130.663 291.231 130.887C290.783 131.097 290.272 131.202 289.698 131.202C289.194 131.202 288.725 131.125 288.291 130.971C287.857 130.803 287.479 130.572 287.157 130.278C286.835 129.97 286.576 129.606 286.38 129.186C286.198 128.766 286.1 128.304 286.086 127.8Z" fill="white"/>
<defs>
<linearGradient id="paint0_linear" x1="8.97994" y1="-2.90489e-06" x2="215.233" y2="333.551" gradientUnits="userSpaceOnUse">
<stop stop-color="#8500F9"/>
<stop offset="1" stop-color="#E70EFF"/>
</linearGradient>
</defs>
</svg>
