<svg xmlns="http://www.w3.org/2000/svg" xmlns:xlink="http://www.w3.org/1999/xlink" width="356" height="215" viewBox="0 0 356 215">
  <defs>
    <linearGradient id="linear-gradient" x1="-0.045" x2="1.027" y2="1.047" gradientUnits="objectBoundingBox">
      <stop offset="0" stop-color="#8500f9"/>
      <stop offset="1" stop-color="#e70eff"/>
    </linearGradient>
    <clipPath id="clip-path">
      <rect id="box" width="356" height="215" rx="6" fill="#01048a"/>
    </clipPath>
  </defs>
  <g id="Group_26" data-name="Group 26" transform="translate(-329 -150)">
    <g id="Card" transform="translate(329 150)">
      <g id="Group_25" data-name="Group 25">
        <g id="Group_2" data-name="Group 2">
          <rect id="box-2" data-name="box" width="356" height="215" rx="10" fill="url(#linear-gradient)"/>
          <g id="Group_2-2" data-name="Group 2" clip-path="url(#clip-path)">
            <g id="waves" transform="translate(-24.13 60.925)" opacity="0.119">
              <g id="original_Path_6_97883563_Group" data-name="original_Path 6_97883563 Group">
                <path id="duplicate_50_original_Path_6_97883563" data-name="duplicate_50_original_Path 6_97883563" d="M0,143.657s28.527-13.817,49.377-37.138,62.8-21.113,84.245-18.407,61.42,2.331,83.666-29.535S246.428-3.379,286.113.307s72.764,16.988,104.93,9.565" transform="translate(235.644 235.492)" fill="none" stroke="#fff" stroke-miterlimit="10" stroke-width="3"/>
                <path id="duplicate_49_original_Path_6_97883563" data-name="duplicate_49_original_Path 6_97883563" d="M0,143.657s28.527-13.817,49.377-37.138,62.8-21.113,84.245-18.407,61.42,2.331,83.666-29.535S246.428-3.379,286.113.307s72.764,16.988,104.93,9.565" transform="translate(230.842 230.687)" fill="none" stroke="#fff" stroke-miterlimit="10" stroke-width="3"/>
                <path id="duplicate_48_original_Path_6_97883563" data-name="duplicate_48_original_Path 6_97883563" d="M0,143.657s28.527-13.817,49.377-37.138,62.8-21.113,84.245-18.407,61.42,2.331,83.666-29.535S246.428-3.379,286.113.307s72.764,16.988,104.93,9.565" transform="translate(226.04 225.881)" fill="none" stroke="#fff" stroke-miterlimit="10" stroke-width="3"/>
                <path id="duplicate_47_original_Path_6_97883563" data-name="duplicate_47_original_Path 6_97883563" d="M0,143.657s28.527-13.817,49.377-37.138,62.8-21.113,84.245-18.407,61.42,2.331,83.666-29.535S246.428-3.379,286.113.307s72.764,16.988,104.93,9.565" transform="translate(221.239 221.075)" fill="none" stroke="#fff" stroke-miterlimit="10" stroke-width="3"/>
                <path id="duplicate_46_original_Path_6_97883563" data-name="duplicate_46_original_Path 6_97883563" d="M0,143.657s28.527-13.817,49.377-37.138,62.8-21.113,84.245-18.407,61.42,2.331,83.666-29.535S246.428-3.379,286.113.307s72.764,16.988,104.93,9.565" transform="translate(216.437 216.27)" fill="none" stroke="#fff" stroke-miterlimit="10" stroke-width="3"/>
                <path id="duplicate_45_original_Path_6_97883563" data-name="duplicate_45_original_Path 6_97883563" d="M0,143.657s28.527-13.817,49.377-37.138,62.8-21.113,84.245-18.407,61.42,2.331,83.666-29.535S246.428-3.379,286.113.307s72.764,16.988,104.93,9.565" transform="translate(211.635 211.464)" fill="none" stroke="#fff" stroke-miterlimit="10" stroke-width="3"/>
                <path id="duplicate_44_original_Path_6_97883563" data-name="duplicate_44_original_Path 6_97883563" d="M0,143.657s28.527-13.817,49.377-37.138,62.8-21.113,84.245-18.407,61.42,2.331,83.666-29.535S246.428-3.379,286.113.307s72.764,16.988,104.93,9.565" transform="translate(206.834 206.658)" fill="none" stroke="#fff" stroke-miterlimit="10" stroke-width="3"/>
                <path id="duplicate_43_original_Path_6_97883563" data-name="duplicate_43_original_Path 6_97883563" d="M0,143.657s28.527-13.817,49.377-37.138,62.8-21.113,84.245-18.407,61.42,2.331,83.666-29.535S246.428-3.379,286.113.307s72.764,16.988,104.93,9.565" transform="translate(202.032 201.852)" fill="none" stroke="#fff" stroke-miterlimit="10" stroke-width="3"/>
                <path id="duplicate_42_original_Path_6_97883563" data-name="duplicate_42_original_Path 6_97883563" d="M0,143.657s28.527-13.817,49.377-37.138,62.8-21.113,84.245-18.407,61.42,2.331,83.666-29.535S246.428-3.379,286.113.307s72.764,16.988,104.93,9.565" transform="translate(197.23 197.047)" fill="none" stroke="#fff" stroke-miterlimit="10" stroke-width="3"/>
                <path id="duplicate_41_original_Path_6_97883563" data-name="duplicate_41_original_Path 6_97883563" d="M0,143.657s28.527-13.817,49.377-37.138,62.8-21.113,84.245-18.407,61.42,2.331,83.666-29.535S246.428-3.379,286.113.307s72.764,16.988,104.93,9.565" transform="translate(192.429 192.241)" fill="none" stroke="#fff" stroke-miterlimit="10" stroke-width="3"/>
                <path id="duplicate_40_original_Path_6_97883563" data-name="duplicate_40_original_Path 6_97883563" d="M0,143.657s28.527-13.817,49.377-37.138,62.8-21.113,84.245-18.407,61.42,2.331,83.666-29.535S246.428-3.379,286.113.307s72.764,16.988,104.93,9.565" transform="translate(187.627 187.435)" fill="none" stroke="#fff" stroke-miterlimit="10" stroke-width="3"/>
                <path id="duplicate_39_original_Path_6_97883563" data-name="duplicate_39_original_Path 6_97883563" d="M0,143.657s28.527-13.817,49.377-37.138,62.8-21.113,84.245-18.407,61.42,2.331,83.666-29.535S246.428-3.379,286.113.307s72.764,16.988,104.93,9.565" transform="translate(182.825 182.63)" fill="none" stroke="#fff" stroke-miterlimit="10" stroke-width="3"/>
                <path id="duplicate_38_original_Path_6_97883563" data-name="duplicate_38_original_Path 6_97883563" d="M0,143.657s28.527-13.817,49.377-37.138,62.8-21.113,84.245-18.407,61.42,2.331,83.666-29.535S246.428-3.379,286.113.307s72.764,16.988,104.93,9.565" transform="translate(178.023 177.824)" fill="none" stroke="#fff" stroke-miterlimit="10" stroke-width="3"/>
                <path id="duplicate_37_original_Path_6_97883563" data-name="duplicate_37_original_Path 6_97883563" d="M0,143.657s28.527-13.817,49.377-37.138,62.8-21.113,84.245-18.407,61.42,2.331,83.666-29.535S246.428-3.379,286.113.307s72.764,16.988,104.93,9.565" transform="translate(173.222 173.018)" fill="none" stroke="#fff" stroke-miterlimit="10" stroke-width="3"/>
                <path id="duplicate_36_original_Path_6_97883563" data-name="duplicate_36_original_Path 6_97883563" d="M0,143.657s28.527-13.817,49.377-37.138,62.8-21.113,84.245-18.407,61.42,2.331,83.666-29.535S246.428-3.379,286.113.307s72.764,16.988,104.93,9.565" transform="translate(168.42 168.213)" fill="none" stroke="#fff" stroke-miterlimit="10" stroke-width="3"/>
                <path id="duplicate_35_original_Path_6_97883563" data-name="duplicate_35_original_Path 6_97883563" d="M0,143.657s28.527-13.817,49.377-37.138,62.8-21.113,84.245-18.407,61.42,2.331,83.666-29.535S246.428-3.379,286.113.307s72.764,16.988,104.93,9.565" transform="translate(163.618 163.407)" fill="none" stroke="#fff" stroke-miterlimit="10" stroke-width="3"/>
                <path id="duplicate_34_original_Path_6_97883563" data-name="duplicate_34_original_Path 6_97883563" d="M0,143.657s28.527-13.817,49.377-37.138,62.8-21.113,84.245-18.407,61.42,2.331,83.666-29.535S246.428-3.379,286.113.307s72.764,16.988,104.93,9.565" transform="translate(158.817 158.601)" fill="none" stroke="#fff" stroke-miterlimit="10" stroke-width="3"/>
                <path id="duplicate_33_original_Path_6_97883563" data-name="duplicate_33_original_Path 6_97883563" d="M0,143.657s28.527-13.817,49.377-37.138,62.8-21.113,84.245-18.407,61.42,2.331,83.666-29.535S246.428-3.379,286.113.307s72.764,16.988,104.93,9.565" transform="translate(154.015 153.796)" fill="none" stroke="#fff" stroke-miterlimit="10" stroke-width="3"/>
                <path id="duplicate_32_original_Path_6_97883563" data-name="duplicate_32_original_Path 6_97883563" d="M0,143.657s28.527-13.817,49.377-37.138,62.8-21.113,84.245-18.407,61.42,2.331,83.666-29.535S246.428-3.379,286.113.307s72.764,16.988,104.93,9.565" transform="translate(149.213 148.99)" fill="none" stroke="#fff" stroke-miterlimit="10" stroke-width="3"/>
                <path id="duplicate_31_original_Path_6_97883563" data-name="duplicate_31_original_Path 6_97883563" d="M0,143.657s28.527-13.817,49.377-37.138,62.8-21.113,84.245-18.407,61.42,2.331,83.666-29.535S246.428-3.379,286.113.307s72.764,16.988,104.93,9.565" transform="translate(144.412 144.184)" fill="none" stroke="#fff" stroke-miterlimit="10" stroke-width="3"/>
                <path id="duplicate_30_original_Path_6_97883563" data-name="duplicate_30_original_Path 6_97883563" d="M0,143.657s28.527-13.817,49.377-37.138,62.8-21.113,84.245-18.407,61.42,2.331,83.666-29.535S246.428-3.379,286.113.307s72.764,16.988,104.93,9.565" transform="translate(139.61 139.379)" fill="none" stroke="#fff" stroke-miterlimit="10" stroke-width="3"/>
                <path id="duplicate_29_original_Path_6_97883563" data-name="duplicate_29_original_Path 6_97883563" d="M0,143.657s28.527-13.817,49.377-37.138,62.8-21.113,84.245-18.407,61.42,2.331,83.666-29.535S246.428-3.379,286.113.307s72.764,16.988,104.93,9.565" transform="translate(134.808 134.573)" fill="none" stroke="#fff" stroke-miterlimit="10" stroke-width="3"/>
                <path id="duplicate_28_original_Path_6_97883563" data-name="duplicate_28_original_Path 6_97883563" d="M0,143.657s28.527-13.817,49.377-37.138,62.8-21.113,84.245-18.407,61.42,2.331,83.666-29.535S246.428-3.379,286.113.307s72.764,16.988,104.93,9.565" transform="translate(130.006 129.767)" fill="none" stroke="#fff" stroke-miterlimit="10" stroke-width="3"/>
                <path id="duplicate_27_original_Path_6_97883563" data-name="duplicate_27_original_Path 6_97883563" d="M0,143.657s28.527-13.817,49.377-37.138,62.8-21.113,84.245-18.407,61.42,2.331,83.666-29.535S246.428-3.379,286.113.307s72.764,16.988,104.93,9.565" transform="translate(125.205 124.962)" fill="none" stroke="#fff" stroke-miterlimit="10" stroke-width="3"/>
                <path id="duplicate_26_original_Path_6_97883563" data-name="duplicate_26_original_Path 6_97883563" d="M0,143.657s28.527-13.817,49.377-37.138,62.8-21.113,84.245-18.407,61.42,2.331,83.666-29.535S246.428-3.379,286.113.307s72.764,16.988,104.93,9.565" transform="translate(120.403 120.156)" fill="none" stroke="#fff" stroke-miterlimit="10" stroke-width="3"/>
                <path id="duplicate_25_original_Path_6_97883563" data-name="duplicate_25_original_Path 6_97883563" d="M0,143.657s28.527-13.817,49.377-37.138,62.8-21.113,84.245-18.407,61.42,2.331,83.666-29.535S246.428-3.379,286.113.307s72.764,16.988,104.93,9.565" transform="translate(115.601 115.35)" fill="none" stroke="#fff" stroke-miterlimit="10" stroke-width="3"/>
                <path id="duplicate_24_original_Path_6_97883563" data-name="duplicate_24_original_Path 6_97883563" d="M0,143.657s28.527-13.817,49.377-37.138,62.8-21.113,84.245-18.407,61.42,2.331,83.666-29.535S246.428-3.379,286.113.307s72.764,16.988,104.93,9.565" transform="translate(110.8 110.545)" fill="none" stroke="#fff" stroke-miterlimit="10" stroke-width="3"/>
                <path id="duplicate_23_original_Path_6_97883563" data-name="duplicate_23_original_Path 6_97883563" d="M0,143.657s28.527-13.817,49.377-37.138,62.8-21.113,84.245-18.407,61.42,2.331,83.666-29.535S246.428-3.379,286.113.307s72.764,16.988,104.93,9.565" transform="translate(105.998 105.739)" fill="none" stroke="#fff" stroke-miterlimit="10" stroke-width="3"/>
                <path id="duplicate_22_original_Path_6_97883563" data-name="duplicate_22_original_Path 6_97883563" d="M0,143.657s28.527-13.817,49.377-37.138,62.8-21.113,84.245-18.407,61.42,2.331,83.666-29.535S246.428-3.379,286.113.307s72.764,16.988,104.93,9.565" transform="translate(101.196 100.933)" fill="none" stroke="#fff" stroke-miterlimit="10" stroke-width="3"/>
                <path id="duplicate_21_original_Path_6_97883563" data-name="duplicate_21_original_Path 6_97883563" d="M0,143.657s28.527-13.817,49.377-37.138,62.8-21.113,84.245-18.407,61.42,2.331,83.666-29.535S246.428-3.379,286.113.307s72.764,16.988,104.93,9.565" transform="translate(96.395 96.128)" fill="none" stroke="#fff" stroke-miterlimit="10" stroke-width="3"/>
                <path id="duplicate_20_original_Path_6_97883563" data-name="duplicate_20_original_Path 6_97883563" d="M0,143.657s28.527-13.817,49.377-37.138,62.8-21.113,84.245-18.407,61.42,2.331,83.666-29.535S246.428-3.379,286.113.307s72.764,16.988,104.93,9.565" transform="translate(91.593 91.322)" fill="none" stroke="#fff" stroke-miterlimit="10" stroke-width="3"/>
                <path id="duplicate_19_original_Path_6_97883563" data-name="duplicate_19_original_Path 6_97883563" d="M0,143.657s28.527-13.817,49.377-37.138,62.8-21.113,84.245-18.407,61.42,2.331,83.666-29.535S246.428-3.379,286.113.307s72.764,16.988,104.93,9.565" transform="translate(86.791 86.516)" fill="none" stroke="#fff" stroke-miterlimit="10" stroke-width="3"/>
                <path id="duplicate_18_original_Path_6_97883563" data-name="duplicate_18_original_Path 6_97883563" d="M0,143.657s28.527-13.817,49.377-37.138,62.8-21.113,84.245-18.407,61.42,2.331,83.666-29.535S246.428-3.379,286.113.307s72.764,16.988,104.93,9.565" transform="translate(81.989 81.71)" fill="none" stroke="#fff" stroke-miterlimit="10" stroke-width="3"/>
                <path id="duplicate_17_original_Path_6_97883563" data-name="duplicate_17_original_Path 6_97883563" d="M0,143.657s28.527-13.817,49.377-37.138,62.8-21.113,84.245-18.407,61.42,2.331,83.666-29.535S246.428-3.379,286.113.307s72.764,16.988,104.93,9.565" transform="translate(77.188 76.905)" fill="none" stroke="#fff" stroke-miterlimit="10" stroke-width="3"/>
                <path id="duplicate_16_original_Path_6_97883563" data-name="duplicate_16_original_Path 6_97883563" d="M0,143.657s28.527-13.817,49.377-37.138,62.8-21.113,84.245-18.407,61.42,2.331,83.666-29.535S246.428-3.379,286.113.307s72.764,16.988,104.93,9.565" transform="translate(72.386 72.099)" fill="none" stroke="#fff" stroke-miterlimit="10" stroke-width="3"/>
                <path id="duplicate_15_original_Path_6_97883563" data-name="duplicate_15_original_Path 6_97883563" d="M0,143.657s28.527-13.817,49.377-37.138,62.8-21.113,84.245-18.407,61.42,2.331,83.666-29.535S246.428-3.379,286.113.307s72.764,16.988,104.93,9.565" transform="translate(67.584 67.293)" fill="none" stroke="#fff" stroke-miterlimit="10" stroke-width="3"/>
                <path id="duplicate_14_original_Path_6_97883563" data-name="duplicate_14_original_Path 6_97883563" d="M0,143.657s28.527-13.817,49.377-37.138,62.8-21.113,84.245-18.407,61.42,2.331,83.666-29.535S246.428-3.379,286.113.307s72.764,16.988,104.93,9.565" transform="translate(62.783 62.488)" fill="none" stroke="#fff" stroke-miterlimit="10" stroke-width="3"/>
                <path id="duplicate_13_original_Path_6_97883563" data-name="duplicate_13_original_Path 6_97883563" d="M0,143.657s28.527-13.817,49.377-37.138,62.8-21.113,84.245-18.407,61.42,2.331,83.666-29.535S246.428-3.379,286.113.307s72.764,16.988,104.93,9.565" transform="translate(57.981 57.682)" fill="none" stroke="#fff" stroke-miterlimit="10" stroke-width="3"/>
                <path id="duplicate_12_original_Path_6_97883563" data-name="duplicate_12_original_Path 6_97883563" d="M0,143.657s28.527-13.817,49.377-37.138,62.8-21.113,84.245-18.407,61.42,2.331,83.666-29.535S246.428-3.379,286.113.307s72.764,16.988,104.93,9.565" transform="translate(53.179 52.876)" fill="none" stroke="#fff" stroke-miterlimit="10" stroke-width="3"/>
                <path id="duplicate_11_original_Path_6_97883563" data-name="duplicate_11_original_Path 6_97883563" d="M0,143.657s28.527-13.817,49.377-37.138,62.8-21.113,84.245-18.407,61.42,2.331,83.666-29.535S246.428-3.379,286.113.307s72.764,16.988,104.93,9.565" transform="translate(48.378 48.071)" fill="none" stroke="#fff" stroke-miterlimit="10" stroke-width="3"/>
                <path id="duplicate_10_original_Path_6_97883563" data-name="duplicate_10_original_Path 6_97883563" d="M0,143.657s28.527-13.817,49.377-37.138,62.8-21.113,84.245-18.407,61.42,2.331,83.666-29.535S246.428-3.379,286.113.307s72.764,16.988,104.93,9.565" transform="translate(43.576 43.265)" fill="none" stroke="#fff" stroke-miterlimit="10" stroke-width="3"/>
                <path id="duplicate_9_original_Path_6_97883563" data-name="duplicate_9_original_Path 6_97883563" d="M0,143.657s28.527-13.817,49.377-37.138,62.8-21.113,84.245-18.407,61.42,2.331,83.666-29.535S246.428-3.379,286.113.307s72.764,16.988,104.93,9.565" transform="translate(38.774 38.459)" fill="none" stroke="#fff" stroke-miterlimit="10" stroke-width="3"/>
                <path id="duplicate_8_original_Path_6_97883563" data-name="duplicate_8_original_Path 6_97883563" d="M0,143.657s28.527-13.817,49.377-37.138,62.8-21.113,84.245-18.407,61.42,2.331,83.666-29.535S246.428-3.379,286.113.307s72.764,16.988,104.93,9.565" transform="translate(33.972 33.654)" fill="none" stroke="#fff" stroke-miterlimit="10" stroke-width="3"/>
                <path id="duplicate_7_original_Path_6_97883563" data-name="duplicate_7_original_Path 6_97883563" d="M0,143.657s28.527-13.817,49.377-37.138,62.8-21.113,84.245-18.407,61.42,2.331,83.666-29.535S246.428-3.379,286.113.307s72.764,16.988,104.93,9.565" transform="translate(29.171 28.848)" fill="none" stroke="#fff" stroke-miterlimit="10" stroke-width="3"/>
                <path id="duplicate_6_original_Path_6_97883563" data-name="duplicate_6_original_Path 6_97883563" d="M0,143.657s28.527-13.817,49.377-37.138,62.8-21.113,84.245-18.407,61.42,2.331,83.666-29.535S246.428-3.379,286.113.307s72.764,16.988,104.93,9.565" transform="translate(24.369 24.042)" fill="none" stroke="#fff" stroke-miterlimit="10" stroke-width="3"/>
                <path id="duplicate_5_original_Path_6_97883563" data-name="duplicate_5_original_Path 6_97883563" d="M0,143.657s28.527-13.817,49.377-37.138,62.8-21.113,84.245-18.407,61.42,2.331,83.666-29.535S246.428-3.379,286.113.307s72.764,16.988,104.93,9.565" transform="translate(19.567 19.237)" fill="none" stroke="#fff" stroke-miterlimit="10" stroke-width="3"/>
                <path id="duplicate_4_original_Path_6_97883563" data-name="duplicate_4_original_Path 6_97883563" d="M0,143.657s28.527-13.817,49.377-37.138,62.8-21.113,84.245-18.407,61.42,2.331,83.666-29.535S246.428-3.379,286.113.307s72.764,16.988,104.93,9.565" transform="translate(14.766 14.431)" fill="none" stroke="#fff" stroke-miterlimit="10" stroke-width="3"/>
                <path id="duplicate_3_original_Path_6_97883563" data-name="duplicate_3_original_Path 6_97883563" d="M0,143.657s28.527-13.817,49.377-37.138,62.8-21.113,84.245-18.407,61.42,2.331,83.666-29.535S246.428-3.379,286.113.307s72.764,16.988,104.93,9.565" transform="translate(9.964 9.625)" fill="none" stroke="#fff" stroke-miterlimit="10" stroke-width="3"/>
                <path id="duplicate_2_original_Path_6_97883563" data-name="duplicate_2_original_Path 6_97883563" d="M0,143.657s28.527-13.817,49.377-37.138,62.8-21.113,84.245-18.407,61.42,2.331,83.666-29.535S246.428-3.379,286.113.307s72.764,16.988,104.93,9.565" transform="translate(5.162 4.82)" fill="none" stroke="#fff" stroke-miterlimit="10" stroke-width="3"/>
                <path id="duplicate_1_original_Path_6_97883563" data-name="duplicate_1_original_Path 6_97883563" d="M0,143.657s28.527-13.817,49.377-37.138,62.8-21.113,84.245-18.407,61.42,2.331,83.666-29.535S246.428-3.379,286.113.307s72.764,16.988,104.93,9.565" transform="translate(0.361 0.014)" fill="none" stroke="#fff" stroke-miterlimit="10" stroke-width="3"/>
              </g>
            </g>
          </g>
        </g>
      </g>
      <g id="visa-pay-logo" transform="translate(13 23)">
        <path id="Shape" d="M3.191,0,0,18.724H5.1L8.3,0Z" transform="translate(21.948 0.906)" fill="#fff"/>
        <path id="Shape-2" data-name="Shape" d="M12.6,0l-5,12.769-.533-1.928A20.034,20.034,0,0,0,0,3.083L4.57,18.7l5.4-.009L18.006,0Z" transform="translate(5.069 0.923)" fill="#fff"/>
        <path id="Shape-3" data-name="Shape" d="M10.2,1.521A2.053,2.053,0,0,0,7.977,0H.066L0,.373c6.157,1.494,10.231,5.093,11.921,9.42Z" transform="translate(0 0.246)" fill="#fff"/>
        <path id="Shape-4" data-name="Shape" d="M10.342,3.911a9.421,9.421,0,0,1,3.819.717l.461.217.69-4.058A13.172,13.172,0,0,0,10.741,0C5.7,0,2.145,2.54,2.117,6.179c-.033,2.689,2.532,4.191,4.469,5.087,1.988.919,2.655,1.5,2.646,2.323-.016,1.253-1.586,1.828-3.052,1.828a10.712,10.712,0,0,1-4.805-.98l-.658-.3L0,18.329a16.162,16.162,0,0,0,5.686,1c5.364,0,8.85-2.51,8.887-6.4.022-2.128-1.339-3.751-4.288-5.083C8.5,6.976,7.408,6.4,7.418,5.522,7.418,4.743,8.345,3.911,10.342,3.911Z" transform="translate(30.244 0.584)" fill="#fff"/>
        <path id="Shape-5" data-name="Shape" d="M5.358,18.714H0L7.577,1.554A2.532,2.532,0,0,1,10.251,0h3.942l4.129,18.712H13.588c-.008-.038-.477-2.183-.622-2.805l-3.583,0-2.952,0c-.187.477-.982,2.572-1.072,2.809h0ZM9.933,6.835l-.005.014c-.166.429-1.636,4.216-2.028,5.219h4.239c-.2-.924-1.173-5.362-1.183-5.406l-.344-1.614c-.126.338-.3.777-.432,1.132l0,.012c-.174.453-.245.638-.244.645Z" transform="translate(44.46 0.927)" fill="#fff"/>
      </g>
      <text id="CARD_HOLDER" data-name="CARD HOLDER" transform="translate(17 173)" fill="#fff" font-size="11" font-family="HelveticaNeue, Helvetica Neue" opacity="0.471"><tspan x="0" y="0">CARD HOLDER</tspan></text>
      <text id="Stephen_Austin" data-name="Stephen Austin" transform="translate(17 193)" fill="#fff" font-size="15" font-family="HelveticaNeue, Helvetica Neue"><tspan x="0" y="0">Stephen Austin</tspan></text>
      <text id="VALID_THRU" data-name="VALID THRU" transform="translate(333 173)" fill="#fff" font-size="11" font-family="HelveticaNeue, Helvetica Neue" opacity="0.471"><tspan x="-62.843" y="0">VALID THRU</tspan></text>
      <text id="_04_21" data-name="04 / 21" transform="translate(334 193)" fill="#fff" font-size="15" font-family="HelveticaNeue, Helvetica Neue"><tspan x="-46.695" y="0">04 / 21</tspan></text>
      <g id="_" data-name="#" transform="translate(18 113)">
        <path id="Path" d="M6.1,5.074c.246.262.446.476.591.642L5.1,6.692,3.706,4.549c-.425.7-.907,1.435-1.458,2.225L.682,5.644c.5-.522,1.017-1.014,1.565-1.5.216-.186.358-.315.409-.364-.172-.031-.674-.135-1.491-.327C.575,3.316.184,3.222,0,3.153l.633-1.7A16.226,16.226,0,0,1,3.047,2.584,17.542,17.542,0,0,1,2.8,0H4.632a21.785,21.785,0,0,1-.283,2.6c.142-.053.433-.177.891-.377q.935-.4,1.726-.677L7.52,3.3c-.765.157-1.668.318-2.676.472Z" transform="translate(0 9)" fill="#fff"/>
        <path id="Path-2" data-name="Path" d="M6.1,5.074c.246.262.446.476.591.642L5.1,6.692,3.706,4.549c-.425.7-.907,1.435-1.458,2.225L.682,5.644c.5-.522,1.017-1.014,1.565-1.5.216-.186.358-.315.409-.364-.172-.031-.674-.135-1.491-.327C.575,3.316.184,3.222,0,3.153l.633-1.7A16.226,16.226,0,0,1,3.047,2.584,17.542,17.542,0,0,1,2.8,0H4.632a21.785,21.785,0,0,1-.283,2.6c.142-.053.433-.177.891-.377q.935-.4,1.726-.677L7.52,3.3c-.765.157-1.668.318-2.676.472Z" transform="translate(14.037 9)" fill="#fff"/>
        <path id="Path-3" data-name="Path" d="M6.1,5.074c.246.262.446.476.591.642L5.1,6.692,3.706,4.549c-.425.7-.907,1.435-1.458,2.225L.682,5.644c.5-.522,1.017-1.014,1.565-1.5.216-.186.358-.315.409-.364-.172-.031-.674-.135-1.491-.327C.575,3.316.184,3.222,0,3.153l.633-1.7A16.226,16.226,0,0,1,3.047,2.584,17.542,17.542,0,0,1,2.8,0H4.632a21.785,21.785,0,0,1-.283,2.6c.142-.053.433-.177.891-.377q.935-.4,1.726-.677L7.52,3.3c-.765.157-1.668.318-2.676.472Z" transform="translate(28.074 9)" fill="#fff"/>
        <path id="Path-4" data-name="Path" d="M6.1,5.074c.246.262.446.476.591.642L5.1,6.692,3.706,4.549c-.425.7-.907,1.435-1.458,2.225L.682,5.644c.5-.522,1.017-1.014,1.565-1.5.216-.186.358-.315.409-.364-.172-.031-.674-.135-1.491-.327C.575,3.316.184,3.222,0,3.153l.633-1.7A16.226,16.226,0,0,1,3.047,2.584,17.542,17.542,0,0,1,2.8,0H4.632a21.785,21.785,0,0,1-.283,2.6c.142-.053.433-.177.891-.377q.935-.4,1.726-.677L7.52,3.3c-.765.157-1.668.318-2.676.472Z" transform="translate(42.111 9)" fill="#fff"/>
        <path id="Path-5" data-name="Path" d="M6.1,5.074c.246.262.446.476.591.642L5.1,6.692,3.706,4.549c-.425.7-.907,1.435-1.458,2.225L.682,5.644c.5-.522,1.017-1.014,1.565-1.5.216-.186.358-.315.409-.364-.172-.031-.674-.135-1.491-.327C.575,3.316.184,3.222,0,3.153l.633-1.7A16.226,16.226,0,0,1,3.047,2.584,17.542,17.542,0,0,1,2.8,0H4.632a21.785,21.785,0,0,1-.283,2.6c.142-.053.433-.177.891-.377q.935-.4,1.726-.677L7.52,3.3c-.765.157-1.668.318-2.676.472Z" transform="translate(69.684 9)" fill="#fff"/>
        <path id="Path-6" data-name="Path" d="M6.1,5.074c.246.262.446.476.591.642L5.1,6.692,3.706,4.549c-.425.7-.907,1.435-1.458,2.225L.682,5.644c.5-.522,1.017-1.014,1.565-1.5.216-.186.358-.315.409-.364-.172-.031-.674-.135-1.491-.327C.575,3.316.184,3.222,0,3.153l.633-1.7A16.226,16.226,0,0,1,3.047,2.584,17.542,17.542,0,0,1,2.8,0H4.632a21.785,21.785,0,0,1-.283,2.6c.142-.053.433-.177.891-.377q.935-.4,1.726-.677L7.52,3.3c-.765.157-1.668.318-2.676.472Z" transform="translate(83.721 9)" fill="#fff"/>
        <path id="Path-7" data-name="Path" d="M6.1,5.074c.246.262.446.476.591.642L5.1,6.692,3.706,4.549c-.425.7-.907,1.435-1.458,2.225L.682,5.644c.5-.522,1.017-1.014,1.565-1.5.216-.186.358-.315.409-.364-.172-.031-.674-.135-1.491-.327C.575,3.316.184,3.222,0,3.153l.633-1.7A16.226,16.226,0,0,1,3.047,2.584,17.542,17.542,0,0,1,2.8,0H4.632a21.785,21.785,0,0,1-.283,2.6c.142-.053.433-.177.891-.377q.935-.4,1.726-.677L7.52,3.3c-.765.157-1.668.318-2.676.472Z" transform="translate(97.759 9)" fill="#fff"/>
        <path id="Path-8" data-name="Path" d="M6.1,5.074c.246.262.446.476.591.642L5.1,6.692,3.706,4.549c-.425.7-.907,1.435-1.458,2.225L.682,5.644c.5-.522,1.017-1.014,1.565-1.5.216-.186.358-.315.409-.364-.172-.031-.674-.135-1.491-.327C.575,3.316.184,3.222,0,3.153l.633-1.7A16.226,16.226,0,0,1,3.047,2.584,17.542,17.542,0,0,1,2.8,0H4.632a21.785,21.785,0,0,1-.283,2.6c.142-.053.433-.177.891-.377q.935-.4,1.726-.677L7.52,3.3c-.765.157-1.668.318-2.676.472Z" transform="translate(111.796 9)" fill="#fff"/>
        <path id="Path-9" data-name="Path" d="M6.1,5.074c.246.262.446.476.591.642L5.1,6.692,3.706,4.549c-.425.7-.907,1.435-1.458,2.225L.682,5.644c.5-.522,1.017-1.014,1.565-1.5.216-.186.358-.315.409-.364-.172-.031-.674-.135-1.491-.327C.575,3.316.184,3.222,0,3.153l.633-1.7A16.226,16.226,0,0,1,3.047,2.584,17.542,17.542,0,0,1,2.8,0H4.632a21.785,21.785,0,0,1-.283,2.6c.142-.053.433-.177.891-.377q.935-.4,1.726-.677L7.52,3.3c-.765.157-1.668.318-2.676.472Z" transform="translate(139.369 9)" fill="#fff"/>
        <path id="Path-10" data-name="Path" d="M6.1,5.074c.246.262.446.476.591.642L5.1,6.692,3.706,4.549c-.425.7-.907,1.435-1.458,2.225L.682,5.644c.5-.522,1.017-1.014,1.565-1.5.216-.186.358-.315.409-.364-.172-.031-.674-.135-1.491-.327C.575,3.316.184,3.222,0,3.153l.633-1.7A16.226,16.226,0,0,1,3.047,2.584,17.542,17.542,0,0,1,2.8,0H4.632a21.785,21.785,0,0,1-.283,2.6c.142-.053.433-.177.891-.377q.935-.4,1.726-.677L7.52,3.3c-.765.157-1.668.318-2.676.472Z" transform="translate(153.406 9)" fill="#fff"/>
        <path id="Path-11" data-name="Path" d="M6.1,5.074c.246.262.446.476.591.642L5.1,6.692,3.706,4.549c-.425.7-.907,1.435-1.458,2.225L.682,5.644c.5-.522,1.017-1.014,1.565-1.5.216-.186.358-.315.409-.364-.172-.031-.674-.135-1.491-.327C.575,3.316.184,3.222,0,3.153l.633-1.7A16.226,16.226,0,0,1,3.047,2.584,17.542,17.542,0,0,1,2.8,0H4.632a21.785,21.785,0,0,1-.283,2.6c.142-.053.433-.177.891-.377q.935-.4,1.726-.677L7.52,3.3c-.765.157-1.668.318-2.676.472Z" transform="translate(167.443 9)" fill="#fff"/>
        <path id="Path-12" data-name="Path" d="M6.1,5.074c.246.262.446.476.591.642L5.1,6.692,3.706,4.549c-.425.7-.907,1.435-1.458,2.225L.682,5.644c.5-.522,1.017-1.014,1.565-1.5.216-.186.358-.315.409-.364-.172-.031-.674-.135-1.491-.327C.575,3.316.184,3.222,0,3.153l.633-1.7A16.226,16.226,0,0,1,3.047,2.584,17.542,17.542,0,0,1,2.8,0H4.632a21.785,21.785,0,0,1-.283,2.6c.142-.053.433-.177.891-.377q.935-.4,1.726-.677L7.52,3.3c-.765.157-1.668.318-2.676.472Z" transform="translate(181.48 9)" fill="#fff"/>
        <text id="_4765" data-name="4765" transform="translate(206)" fill="#fff" font-size="21" font-family="HelveticaNeue-Light, Helvetica Neue" font-weight="300"><tspan x="0" y="20">4765</tspan></text>
      </g>
    </g>
  </g>
</svg>
