<svg width="76" height="12" viewBox="0 0 76 12" fill="none" xmlns="http://www.w3.org/2000/svg">
<path d="M3.914 9.53C4.264 9.53 4.558 9.488 4.796 9.404C5.034 9.32 5.223 9.208 5.363 9.068C5.50767 8.928 5.61033 8.76467 5.671 8.578C5.73633 8.39133 5.769 8.193 5.769 7.983C5.769 7.76367 5.734 7.56767 5.664 7.395C5.594 7.21767 5.48433 7.06833 5.335 6.947C5.18567 6.821 4.992 6.72533 4.754 6.66C4.52067 6.59467 4.23833 6.562 3.907 6.562H2.01V9.53H3.914ZM2.01 2.334V5.26H3.508C4.152 5.26 4.63733 5.14333 4.964 4.91C5.29533 4.67667 5.461 4.30567 5.461 3.797C5.461 3.26967 5.31167 2.894 5.013 2.67C4.71433 2.446 4.24767 2.334 3.613 2.334H2.01ZM3.613 0.877999C4.27567 0.877999 4.84267 0.940999 5.314 1.067C5.78533 1.193 6.17033 1.37267 6.469 1.606C6.77233 1.83933 6.994 2.12167 7.134 2.453C7.274 2.78433 7.344 3.15767 7.344 3.573C7.344 3.811 7.309 4.03967 7.239 4.259C7.169 4.47367 7.05933 4.67667 6.91 4.868C6.76533 5.05467 6.57867 5.225 6.35 5.379C6.126 5.533 5.85767 5.66367 5.545 5.771C6.93567 6.08367 7.631 6.835 7.631 8.025C7.631 8.45433 7.54933 8.851 7.386 9.215C7.22267 9.579 6.98467 9.894 6.672 10.16C6.35933 10.4213 5.97433 10.6267 5.517 10.776C5.05967 10.9253 4.537 11 3.949 11H0.127V0.877999H3.613ZM18.9948 5.939C18.9948 6.681 18.8712 7.36933 18.6238 8.004C18.3812 8.634 18.0358 9.18 17.5878 9.642C17.1398 10.104 16.6008 10.4657 15.9708 10.727C15.3408 10.9837 14.6408 11.112 13.8708 11.112C13.1055 11.112 12.4078 10.9837 11.7778 10.727C11.1478 10.4657 10.6065 10.104 10.1538 9.642C9.70584 9.18 9.35818 8.634 9.11084 8.004C8.86351 7.36933 8.73984 6.681 8.73984 5.939C8.73984 5.197 8.86351 4.511 9.11084 3.881C9.35818 3.24633 9.70584 2.698 10.1538 2.236C10.6065 1.774 11.1478 1.41467 11.7778 1.158C12.4078 0.896667 13.1055 0.766 13.8708 0.766C14.3842 0.766 14.8672 0.826666 15.3198 0.947999C15.7725 1.06467 16.1878 1.23267 16.5658 1.452C16.9438 1.66667 17.2822 1.93033 17.5808 2.243C17.8842 2.551 18.1408 2.89633 18.3508 3.279C18.5608 3.66167 18.7195 4.077 18.8268 4.525C18.9388 4.973 18.9948 5.44433 18.9948 5.939ZM17.0698 5.939C17.0698 5.38367 16.9952 4.88667 16.8458 4.448C16.6965 4.00467 16.4842 3.629 16.2088 3.321C15.9335 3.013 15.5975 2.77733 15.2008 2.614C14.8088 2.45067 14.3655 2.369 13.8708 2.369C13.3762 2.369 12.9305 2.45067 12.5338 2.614C12.1418 2.77733 11.8058 3.013 11.5258 3.321C11.2505 3.629 11.0382 4.00467 10.8888 4.448C10.7395 4.88667 10.6648 5.38367 10.6648 5.939C10.6648 6.49433 10.7395 6.99367 10.8888 7.437C11.0382 7.87567 11.2505 8.249 11.5258 8.557C11.8058 8.86033 12.1418 9.09367 12.5338 9.257C12.9305 9.42033 13.3762 9.502 13.8708 9.502C14.3655 9.502 14.8088 9.42033 15.2008 9.257C15.5975 9.09367 15.9335 8.86033 16.2088 8.557C16.4842 8.249 16.6965 7.87567 16.8458 7.437C16.9952 6.99367 17.0698 6.49433 17.0698 5.939ZM25.682 7.178L24.45 3.811C24.3894 3.66167 24.3264 3.48433 24.261 3.279C24.1957 3.07367 24.1304 2.852 24.065 2.614C24.0044 2.852 23.9414 3.076 23.876 3.286C23.8107 3.49133 23.7477 3.671 23.687 3.825L22.462 7.178H25.682ZM29.007 11H27.551C27.3877 11 27.2547 10.9603 27.152 10.881C27.0494 10.797 26.9724 10.6943 26.921 10.573L26.165 8.508H21.972L21.216 10.573C21.1787 10.6803 21.1064 10.7783 20.999 10.867C20.8917 10.9557 20.7587 11 20.6 11H19.13L23.113 0.877999H25.031L29.007 11ZM33.1137 5.694C33.4684 5.694 33.7764 5.64967 34.0377 5.561C34.3037 5.47233 34.5207 5.351 34.6887 5.197C34.8614 5.03833 34.9897 4.85167 35.0737 4.637C35.1577 4.42233 35.1997 4.18667 35.1997 3.93C35.1997 3.41667 35.0294 3.02233 34.6887 2.747C34.3527 2.47167 33.8371 2.334 33.1417 2.334H31.9377V5.694H33.1137ZM37.9577 11H36.2567C35.9347 11 35.7014 10.874 35.5567 10.622L33.4287 7.381C33.3494 7.25967 33.2607 7.17333 33.1627 7.122C33.0694 7.07067 32.9294 7.045 32.7427 7.045H31.9377V11H30.0547V0.877999H33.1417C33.8277 0.877999 34.4157 0.950333 34.9057 1.095C35.4004 1.235 35.8041 1.43333 36.1167 1.69C36.4341 1.94667 36.6674 2.25467 36.8167 2.614C36.9661 2.96867 37.0407 3.36067 37.0407 3.79C37.0407 4.13067 36.9894 4.45267 36.8867 4.756C36.7887 5.05933 36.6441 5.33467 36.4527 5.582C36.2661 5.82933 36.0327 6.04633 35.7527 6.233C35.4774 6.41967 35.1624 6.56667 34.8077 6.674C34.9291 6.744 35.0411 6.828 35.1437 6.926C35.2464 7.01933 35.3397 7.13133 35.4237 7.262L37.9577 11ZM48.0388 5.939C48.0388 6.681 47.9152 7.36233 47.6678 7.983C47.4205 8.60367 47.0728 9.138 46.6248 9.586C46.1768 10.034 45.6378 10.3817 45.0078 10.629C44.3778 10.8763 43.6778 11 42.9078 11H39.0508V0.877999H42.9078C43.6778 0.877999 44.3778 1.004 45.0078 1.256C45.6378 1.50333 46.1768 1.851 46.6248 2.299C47.0728 2.74233 47.4205 3.27433 47.6678 3.895C47.9152 4.51567 48.0388 5.197 48.0388 5.939ZM46.1068 5.939C46.1068 5.38367 46.0322 4.88667 45.8828 4.448C45.7382 4.00467 45.5258 3.63133 45.2458 3.328C44.9705 3.02 44.6345 2.78433 44.2378 2.621C43.8458 2.45767 43.4025 2.376 42.9078 2.376H40.9408V9.502H42.9078C43.4025 9.502 43.8458 9.42033 44.2378 9.257C44.6345 9.09367 44.9705 8.86033 45.2458 8.557C45.5258 8.249 45.7382 7.87567 45.8828 7.437C46.0322 6.99367 46.1068 6.49433 46.1068 5.939ZM54.7348 7.178L53.5028 3.811C53.4421 3.66167 53.3791 3.48433 53.3138 3.279C53.2484 3.07367 53.1831 2.852 53.1178 2.614C53.0571 2.852 52.9941 3.076 52.9288 3.286C52.8634 3.49133 52.8004 3.671 52.7398 3.825L51.5148 7.178H54.7348ZM58.0598 11H56.6038C56.4404 11 56.3074 10.9603 56.2048 10.881C56.1021 10.797 56.0251 10.6943 55.9738 10.573L55.2178 8.508H51.0248L50.2688 10.573C50.2314 10.6803 50.1591 10.7783 50.0518 10.867C49.9444 10.9557 49.8114 11 49.6528 11H48.1828L52.1658 0.877999H54.0838L58.0598 11ZM64.4975 2.719C64.4415 2.817 64.3808 2.88933 64.3155 2.936C64.2548 2.978 64.1778 2.999 64.0845 2.999C63.9865 2.999 63.8791 2.964 63.7625 2.894C63.6505 2.81933 63.5151 2.73767 63.3565 2.649C63.1978 2.56033 63.0111 2.481 62.7965 2.411C62.5865 2.33633 62.3368 2.299 62.0475 2.299C61.7861 2.299 61.5575 2.33167 61.3615 2.397C61.1655 2.45767 60.9998 2.544 60.8645 2.656C60.7338 2.768 60.6358 2.90333 60.5705 3.062C60.5051 3.216 60.4725 3.38633 60.4725 3.573C60.4725 3.811 60.5378 4.00933 60.6685 4.168C60.8038 4.32667 60.9811 4.462 61.2005 4.574C61.4198 4.686 61.6695 4.78633 61.9495 4.875C62.2295 4.96367 62.5165 5.05933 62.8105 5.162C63.1045 5.26 63.3915 5.37667 63.6715 5.512C63.9515 5.64267 64.2011 5.81067 64.4205 6.016C64.6398 6.21667 64.8148 6.464 64.9455 6.758C65.0808 7.052 65.1485 7.409 65.1485 7.829C65.1485 8.28633 65.0691 8.71567 64.9105 9.117C64.7565 9.51367 64.5278 9.86133 64.2245 10.16C63.9258 10.454 63.5595 10.6873 63.1255 10.86C62.6915 11.028 62.1945 11.112 61.6345 11.112C61.3125 11.112 60.9951 11.0793 60.6825 11.014C60.3698 10.9533 60.0688 10.8647 59.7795 10.748C59.4948 10.6313 59.2265 10.4913 58.9745 10.328C58.7225 10.1647 58.4985 9.98267 58.3025 9.782L58.8555 8.879C58.9021 8.81367 58.9628 8.76 59.0375 8.718C59.1121 8.67133 59.1915 8.648 59.2755 8.648C59.3921 8.648 59.5181 8.697 59.6535 8.795C59.7888 8.88833 59.9498 8.99333 60.1365 9.11C60.3231 9.22667 60.5401 9.334 60.7875 9.432C61.0395 9.52533 61.3405 9.572 61.6905 9.572C62.2271 9.572 62.6425 9.446 62.9365 9.194C63.2305 8.93733 63.3775 8.571 63.3775 8.095C63.3775 7.829 63.3098 7.612 63.1745 7.444C63.0438 7.276 62.8688 7.136 62.6495 7.024C62.4301 6.90733 62.1805 6.80933 61.9005 6.73C61.6205 6.65067 61.3358 6.56433 61.0465 6.471C60.7571 6.37767 60.4725 6.26567 60.1925 6.135C59.9125 6.00433 59.6628 5.834 59.4435 5.624C59.2241 5.414 59.0468 5.15267 58.9115 4.84C58.7808 4.52267 58.7155 4.133 58.7155 3.671C58.7155 3.30233 58.7878 2.943 58.9325 2.593C59.0818 2.243 59.2965 1.93267 59.5765 1.662C59.8565 1.39133 60.2018 1.17433 60.6125 1.011C61.0231 0.847667 61.4945 0.766 62.0265 0.766C62.6238 0.766 63.1745 0.859333 63.6785 1.046C64.1825 1.23267 64.6118 1.494 64.9665 1.83L64.4975 2.719ZM75.3241 0.877999V11H73.4341V6.576H68.6811V11H66.7911V0.877999H68.6811V5.232H73.4341V0.877999H75.3241Z" fill="#1F2022"/>
</svg>
