<svg version="1.1" id="Layer_1" xmlns="http://www.w3.org/2000/svg" x="0" y="0" viewBox="0 0 2793.99 2793.99"
	xml:space="preserve">
	<style>
		.st0 {
			fill: #a1a3a6
		}

		.st1 {
			fill: #104c93
		}
	</style>
	<switch>
		<g>
			<path class="st0"
				d="M1569.15 1192.55c-2.19 2.81-5 5.63-8.12 8.12v-8.12h8.12zM1232.65 856.36v8.12h-8.12a97.22 97.22 0 018.12-8.12zM1224.52 1192.55h8.12v8.12a98.76 98.76 0 01-8.12-8.12zM1569.15 864.48h-8.12v-8.12a50.26 50.26 0 018.12 8.12z" />
			<path class="st1"
				d="M694.32 2627.13c49.49 0 89.89-19.56 121.32-58.71l64.5 66.46c-51.2 57.64-111.49 86.44-180.97 86.44s-126.66-21.94-171.6-65.81c-44.94-43.85-67.4-99.23-67.4-166.11 0-66.88 22.88-122.69 68.68-167.42 45.8-44.73 101.82-67.1 168.06-67.1 73.99 0 135.93 28.16 185.79 84.52l-62.55 70.97c-31.85-39.57-71.4-59.35-118.72-59.35-37.87 0-70.21 12.36-97.09 37.07-26.88 24.75-40.31 58.06-40.31 100.02 0 41.92 12.66 75.58 38.05 100.96 25.36 25.4 56.12 38.06 92.24 38.06zM1007.87 2716.17h-96.78v-478.71h96.78v478.71zM1068.83 2324.88c-10.95-10.95-16.42-24.41-16.42-40.31 0-15.93 5.46-29.38 16.42-40.34 10.98-10.98 24.41-16.45 40.34-16.45s29.35 5.46 40.34 16.45c10.95 10.95 16.42 24.41 16.42 40.34 0 15.9-5.46 29.35-16.42 40.31-10.98 10.98-24.41 16.45-40.34 16.45s-29.35-5.47-40.34-16.45zm88.73 391.29h-96.78v-347.08h96.78v347.08zM1307.22 2522.63v193.54h-96.78v-347.08h96.78v19.38c29.23-29.66 78.16-29.79 114.31-24.36 33.12 4.98 51.59 12.06 76.33 37.87 24.75 25.81 37.07 60.23 37.07 103.22v210.96h-96.75v-196.13c0-53.3-19.56-80-58.71-80-19.38 0-36.25 7.02-50.65 20.99-14.43 13.98-21.6 34.51-21.6 61.61zM1592.05 2324.88c-10.98-10.95-16.45-24.41-16.45-40.31 0-15.93 5.46-29.38 16.45-40.34 10.98-10.98 24.41-16.45 40.34-16.45 15.9 0 29.35 5.46 40.31 16.45 10.95 10.95 16.45 24.41 16.45 40.34 0 15.9-5.49 29.35-16.45 40.31-10.95 10.98-24.41 16.45-40.31 16.45-15.93-.01-29.35-5.47-40.34-16.45zm88.73 391.29H1584v-347.08h96.78v347.08zM1780.37 2665.86l-46.74 50.31v-478.71h96.78v245.81l107.77-114.85h121.93l-132.24 140.66 137.37 207.09h-114.79l-88.42-132.91-31.61 32.92-50.05 49.68zM2175.57 2716.17h-96.78v-478.71h96.78v478.71zM2236.53 2324.88c-10.98-10.95-16.48-24.41-16.48-40.31 0-15.93 5.49-29.38 16.48-40.34 10.98-10.98 24.41-16.45 40.34-16.45 15.87 0 29.35 5.46 40.34 16.45 10.92 10.95 16.42 24.41 16.42 40.34 0 15.9-5.49 29.35-16.42 40.31-10.98 10.98-24.47 16.45-40.34 16.45-15.93-.01-29.35-5.47-40.34-16.45zm88.73 391.29h-96.78v-347.08h96.78v347.08zM2346.84 1022.51c0 300.53-139.63 568.39-357.52 742.4a834.7 834.7 0 01-56.23 41.41l-289.7-250.95c200.99-93.27 340.43-296.73 340.43-532.86 0-324.28-262.73-587.2-587.01-587.2S809.8 698.23 809.8 1022.51c0 227.96 129.94 425.53 319.72 522.8l-271.66 259.31a958.07 958.07 0 01-56.61-42.36c-216-174.01-354.1-440.73-354.1-739.74 0-524.7 425.15-949.85 949.85-949.85 524.5-.01 949.84 425.14 949.84 949.84z" />
			<path fill="#0ebbbc"
				d="M1264.48 1365.68V1228.6l-118.71 68.52-122.15-211.22 118.92-68.69-118.92-68.68 122.15-211.22 118.71 68.52v-137.1h243.95v137.11l118.72-68.53 122.13 211.21-118.8 68.67 118.78 68.56-121.97 211.28-118.86-68.66v137.31z" />
		</g>
	</switch>
</svg>