<?xml version="1.0" encoding="utf-8"?>
<!-- Generator: Adobe Illustrator 24.0.0, SVG Export Plug-In . SVG Version: 6.00 Build 0)  -->
<svg version="1.1" id="Layer_1" xmlns="http://www.w3.org/2000/svg" xmlns:xlink="http://www.w3.org/1999/xlink" x="0px" y="0px"
	 viewBox="0 0 1000 1000" style="enable-background:new 0 0 1000 1000;" xml:space="preserve">
<g>
	<g>
		<path d="M291.07,746.06c1.59-1.57,2.37-3.42,2.37-5.66v-27.27c0-2.24-0.77-4.1-2.37-5.66c-1.59-1.57-3.47-2.33-5.72-2.33H250v7.04
			h7.69c0.11-0.04,0.22-0.06,0.34-0.06h27.32c0.56,0,1.02,0.46,1.02,1.02v27.27c0,0.56-0.46,1.02-1.02,1.02h-27.32
			c-0.56,0-1.02-0.46-1.02-1.02v-18.91H250v26.9h35.35C287.6,748.39,289.48,747.62,291.07,746.06z"/>
		<rect x="599.16" y="705.14" width="6.97" height="43.25"/>
		<g>
			<polygon points="353.44,728.66 353.44,721.68 327.15,721.68 327.15,721.61 320.12,721.61 320.12,748.39 359.79,748.41 
				359.79,741.44 327.15,741.44 327.15,728.66 			"/>
			<polygon points="359.79,712.13 359.79,705.16 320.12,705.13 320.12,712.1 332.77,712.13 			"/>
		</g>
		<path d="M750,742.06v-36.93h-6.97v36.28h-13.98v-18.53h-6.97v18.53h-13.98v-36.28h-7.03v36.93c0,3.49,2.84,6.32,6.32,6.32h36.28
			C747.16,748.39,750,745.55,750,742.06z"/>
		<g>
			<path d="M489.46,705.13h-35.35v28.15h7v-0.23l0.87,0.21l27.48-0.06c2.26,0,4.13-0.77,5.72-2.37c1.59-1.59,2.37-3.44,2.37-5.66
				v-12.02c0-2.21-0.77-4.06-2.37-5.66C493.58,705.91,491.71,705.13,489.46,705.13z M490.48,725.18c0,0.61-0.41,1.02-1.02,1.02
				h-27.32c-0.61,0-1.02-0.41-1.02-1.02v-12.02c0-0.61,0.41-1.02,1.02-1.02h27.32c0.61,0,1.02,0.41,1.02,1.02V725.18z"/>
			<rect x="454.11" y="742.51" width="7" height="5.87"/>
		</g>
		<g>
			<polygon points="420.22,728.67 420.22,721.69 393.93,721.69 393.93,721.62 386.9,721.62 386.9,748.39 426.57,748.42 
				426.57,741.45 393.93,741.45 393.93,728.67 			"/>
			<polygon points="426.57,712.14 426.57,705.17 386.9,705.14 386.9,712.11 399.54,712.14 			"/>
		</g>
		<g>
			<polygon points="667.08,728.65 667.08,721.68 640.8,721.68 640.8,721.61 633.77,721.61 633.77,748.39 673.44,748.41 
				673.44,741.44 640.8,741.44 640.8,728.65 			"/>
			<polygon points="673.44,712.13 673.44,705.16 633.77,705.13 633.77,712.1 646.41,712.13 			"/>
		</g>
		<polygon points="570.36,705.13 563.39,705.13 563.39,713.35 563.32,713.48 547.8,740.27 532.23,713.45 532.23,705.13 
			525.26,705.13 525.26,715.36 526.45,717.46 526.43,717.48 544.41,748.39 551.13,748.39 570.36,715.35 		"/>
	</g>
	<g>
		<path d="M496.24,313.42c-0.06-0.1-0.12-0.19-0.18-0.29 M519.34,313.03c-0.03,0.05-0.06,0.09-0.1,0.14"/>
		<path d="M507.42,646.78c-26.14,0-51.5-5.12-75.38-15.22c-23.06-9.75-43.77-23.72-61.55-41.5c-17.78-17.78-31.74-38.49-41.5-61.55
			c-10.1-23.88-15.22-49.24-15.22-75.38c0-20.53,3.2-42.12,9.5-61.45l9.65-5.23c-5.97,18.31-9,34.23-9,53.69
			c0,101.18,82.32,183.5,183.5,183.5c101.18,0,183.5-82.32,183.5-183.5c0-18.27-2.68-32.62-7.95-49.91l9.71,5.87
			c5.57,18.26,8.39,37.75,8.39,57.03c0,26.14-5.12,51.5-15.22,75.38c-9.75,23.06-23.72,43.77-41.5,61.55
			c-17.78,17.78-38.49,31.74-61.55,41.5C558.92,641.66,533.56,646.78,507.42,646.78z"/>
		<path d="M669.17,397.34c-5.69,9.46-12.18,18.39-19.39,26.67c-0.22,0.26-0.45,0.52-0.68,0.78c-6.35,7.22-13.24,13.96-20.61,20.13
			h11.77c0,0,9.35,1.93,8.6,8.15c0,0.01,0,0.01,0,0.02c-6.74,40.53-35.89,74.75-76.15,92.78c0,0-0.01,0-0.02,0.01
			c-22.87,8.87-31.5-1.6-34.55-8.16v0l-4.86-50.58l-15.49-161.47l-0.68-7.11c-0.05-1.6,0.77-3.42,2.14-5.4
			c1.35-0.53,2.66-1.16,3.91-1.87c4.7-2.65,8.66-6.46,11.5-11.04c13.07,2.53,25.5,6.84,37.03,12.68
			c9.03-3.85,17.63-8.48,25.74-13.81c-17.65-11.29-37.56-19.36-58.9-23.37c-3.12-12.77-13.89-22.53-27.18-24.15h0
			c-1.31-0.03-2.61-0.04-3.92-0.04s-2.61,0.01-3.92,0.04h0c-13.29,1.62-24.06,11.38-27.18,24.15c-21.34,4.01-41.25,12.07-58.9,23.37
			c8.11,5.33,16.71,9.96,25.74,13.81c11.53-5.84,23.96-10.15,37.03-12.68c2.84,4.58,6.8,8.39,11.49,11.04
			c1.45,0.82,2.97,1.53,4.55,2.12c1.66,2.7,1.66,5.24,1.66,5.24l-0.67,7.03l-15.51,161.48l-4.84,50.41
			c-3,6.56-11.62,17.28-34.68,8.33c-40.38-18.08-69.59-52.41-76.25-93.09c0-0.01,0-0.03,0-0.04c-0.34-5.05,6.47-7.28,8.56-7.85
			h11.86c-7.37-6.18-14.27-12.91-20.61-20.13c-0.23-0.26-0.46-0.52-0.68-0.78c-7.21-8.28-13.7-17.21-19.39-26.67
			c-3.61,13.66-5.53,28.01-5.53,42.81c0,92.38,74.89,167.27,167.27,167.27S674.7,532.54,674.7,440.15
			C674.7,425.36,672.77,411,669.17,397.34z M496.14,298.1L496.14,298.1c-4.41-3.39-7.25-8.71-7.25-14.7c0-3.59,1.02-6.95,2.8-9.79
			c3.27-5.25,9.09-8.74,15.73-8.74h0c6.64,0,12.46,3.49,15.73,8.74c1.78,2.84,2.8,6.2,2.8,9.79c0,5.99-2.84,11.31-7.25,14.7h0
			c-3.13,2.4-7.04,3.83-11.28,3.83h0C503.18,301.93,499.27,300.5,496.14,298.1z M507.42,585.5l-12.62-15.54l12.62-15.54l12.62,15.54
			L507.42,585.5z"/>
	</g>
</g>
</svg>
