<svg xmlns="http://www.w3.org/2000/svg" width="32.93" height="32.931" viewBox="0 0 32.93 32.931">
  <g id="Icon" transform="translate(0.016 0.028)">
    <g id="Group_7" data-name="Group 7" transform="translate(-0.016 -0.028)">
      <path id="Shape" d="M.793,20.494a3.913,3.913,0,0,0,.57.329c.237.121.634.324.662.466a.953.953,0,0,1-.065.556c-.082.176-.167.327-.242.457-.2.355-.537.95-.03,1.364.119.11.323.268.51.412a1.383,1.383,0,0,0-.178.792.79.79,0,0,0,.325.539c.122.086.252.161.38.234.324.185.451.271.494.443a1.512,1.512,0,0,1-.055.659c-.032.147-.064.294-.082.439a3.265,3.265,0,0,0,.181,1.479,2.056,2.056,0,0,0,1.941,1.5,2.205,2.205,0,0,0,.45-.048,41.636,41.636,0,0,0,4.627-1.385c1.237.726,2.017,2.932,2.221,3.76a.549.549,0,0,0,.533.417l13.775-.038a.549.549,0,0,0,.522-.714,4.237,4.237,0,0,0-.556-1.043,5.128,5.128,0,0,1-.355-.594,10.364,10.364,0,0,1-.62-1.561,18.519,18.519,0,0,1-.644-3.211.549.549,0,1,0-1.089.134,19.582,19.582,0,0,0,.684,3.4A11.5,11.5,0,0,0,25.436,31a6.083,6.083,0,0,0,.425.717l.037.055L13.451,31.8a8.745,8.745,0,0,0-1.932-3.5l.494-.173c.368-.128.645-.225.787-.271,2.351-.744,3.527-1.814,3.495-3.183a.535.535,0,0,0-.559-.536.549.549,0,0,0-.536.561c.013.565-.449,1.389-2.731,2.11-.149.048-.435.148-.816.28-.408.143-.926.324-1.5.518h0a42.7,42.7,0,0,1-4.72,1.427A.971.971,0,0,1,4.3,28.3a2.183,2.183,0,0,1-.129-.979c.014-.115.041-.229.066-.344a2.4,2.4,0,0,0,.048-1.168A1.824,1.824,0,0,0,3.272,24.69l-.114-.065a2.052,2.052,0,0,1,.211-.339.549.549,0,0,0-.1-.781c-.132-.1-.442-.329-.67-.513.026-.048.055-.1.082-.148.086-.151.184-.327.28-.53A2.057,2.057,0,0,0,3.1,21.085c-.132-.67-.773-1-1.241-1.237a3.115,3.115,0,0,1-.451-.262,2.334,2.334,0,0,1-.329-.268c0-.083.089-.284.507-.794A22.075,22.075,0,0,0,4.1,14.445a1.62,1.62,0,0,0,.212-.743,1.921,1.921,0,0,0-.8-1.372c-.222-.2-.431-.4-.455-.573a1,1,0,0,1,.086-.377c.089-.235.193-.466.3-.7a8.016,8.016,0,0,0,.537-1.447L4.03,9a13.706,13.706,0,0,1,.449-1.62A9.412,9.412,0,0,1,6.448,4.166a9.051,9.051,0,0,1,4.92-2.337,35.673,35.673,0,0,1,5.149-.742,11.7,11.7,0,0,1,2.583.147A.549.549,0,0,0,19.288.152,12.744,12.744,0,0,0,16.46-.009a36.62,36.62,0,0,0-5.309.762,9.981,9.981,0,0,0-5.5,2.659A10.515,10.515,0,0,0,3.449,7a14.894,14.894,0,0,0-.486,1.752l-.055.232a7.16,7.16,0,0,1-.469,1.25c-.11.25-.224.5-.322.76a1.838,1.838,0,0,0-.145.918,2.1,2.1,0,0,0,.8,1.226c.268.246.445.42.447.571a.911.911,0,0,1-.094.239,21.172,21.172,0,0,1-2.4,3.906A2.27,2.27,0,0,0,0,19.466,1.675,1.675,0,0,0,.793,20.494Z" transform="translate(0.016 0.028)" fill="#f45050"/>
      <path id="Path_13" data-name="Path 13" d="M79.537,56.846l.055-.244a12.23,12.23,0,0,1,.366-1.349,7.232,7.232,0,0,1,1.506-2.47,5.747,5.747,0,0,1,2.529-1.389.549.549,0,1,0-.319-1.05,6.8,6.8,0,0,0-3.008,1.685,8.331,8.331,0,0,0-1.736,2.844,13.08,13.08,0,0,0-.407,1.487l-.055.238a.549.549,0,0,0,.41.659.538.538,0,0,0,.125.014A.549.549,0,0,0,79.537,56.846Z" transform="translate(-73.407 -47.079)" fill="#f45050"/>
      <ellipse id="Oval" cx="0.549" cy="0.549" rx="0.549" ry="0.549" transform="translate(4.392 10.978)" fill="#f45050"/>
      <path id="Path_14" data-name="Path 14" d="M230.378,66.983a7.522,7.522,0,0,0,1.854,5.1,9.429,9.429,0,0,0,1.262,1.1,4.216,4.216,0,0,1,1.766,2.039,1.646,1.646,0,0,0-1.041,1.528v1.1a1.646,1.646,0,0,0,1.1,1.545v.1a2.2,2.2,0,1,0,4.391,0v-.1a1.646,1.646,0,0,0,1.1-1.545v-1.1a1.646,1.646,0,0,0-1.043-1.528,4.222,4.222,0,0,1,1.766-2.039,9.465,9.465,0,0,0,1.262-1.1,7.526,7.526,0,0,0,1.857-5.1,7.136,7.136,0,1,0-14.269,0Zm5.488.982h-.549a.549.549,0,1,1,.549-.549Zm2.2,7.135h-1.1V69.063h1.1Zm-.549,5.488a1.1,1.1,0,0,1-1.1-1.1h2.2A1.1,1.1,0,0,1,237.512,80.588Zm2.2-2.744a.549.549,0,0,1-.549.549h-3.293a.549.549,0,0,1-.549-.549v-1.1a.549.549,0,0,1,.549-.549h3.293a.549.549,0,0,1,.549.549ZM243.549,67a6.417,6.417,0,0,1-1.571,4.346,8.575,8.575,0,0,1-1.118.964,7.682,7.682,0,0,0-1.7,1.624V69.063h.549a1.646,1.646,0,1,0-1.646-1.646v.549h-1.1v-.549a1.646,1.646,0,1,0-1.646,1.646h.549v4.871a7.672,7.672,0,0,0-1.7-1.623,8.59,8.59,0,0,1-1.118-.965A6.414,6.414,0,0,1,231.476,67a6.038,6.038,0,1,1,12.074,0Zm-4.391.965v-.549a.549.549,0,1,1,.549.549Z" transform="translate(-215.559 -55.89)" fill="#f45050"/>
      <path id="Path_15" data-name="Path 15" d="M469.882,163.231h1.646a.549.549,0,1,0,0-1.1h-1.646a.549.549,0,1,0,0,1.1Z" transform="translate(-439.147 -151.704)" fill="#f45050"/>
      <path id="Path_16" data-name="Path 16" d="M429.88,49.652a.549.549,0,0,0,.389-.161l1.164-1.165a.549.549,0,1,0-.776-.776l-1.165,1.164a.549.549,0,0,0,.388.937Z" transform="translate(-401.717 -44.334)" fill="#f45050"/>
      <path id="Path_17" data-name="Path 17" d="M333.349,2.744A.549.549,0,0,0,333.9,2.2V.549a.549.549,0,0,0-1.1,0V2.2A.549.549,0,0,0,333.349,2.744Z" transform="translate(-311.395 0.002)" fill="#f45050"/>
      <path id="Path_18" data-name="Path 18" d="M220.158,49.491a.549.549,0,0,0,0-.777l-1.165-1.164a.549.549,0,1,0-.776.776l1.164,1.165a.549.549,0,0,0,.777,0Z" transform="translate(-204.025 -44.334)" fill="#f45050"/>
      <path id="Path_19" data-name="Path 19" d="M171.216,162.133a.549.549,0,0,0,0,1.1h1.646a.549.549,0,0,0,0-1.1Z" transform="translate(-159.69 -151.704)" fill="#f45050"/>
    </g>
  </g>
</svg>