<svg width="200px" height="43px" viewBox="0 0 477 61" version="1.1" xmlns="http://www.w3.org/2000/svg" xmlns:xlink="http://www.w3.org/1999/xlink" class="el-logo" data-v-fa70c9e8=""><g id="Page-1" stroke="none" stroke-width="1" fill="none" fill-rule="evenodd" data-v-fa70c9e8=""><g id="new-logo" data-v-fa70c9e8=""><g id="Group-10-Copy_8_" fill="#1AB394" fill-rule="nonzero" data-v-fa70c9e8=""><path id="Combined-Shape_8_" d="M8.7,0.8 L42.6,0.8 C47.3,0.8 51.1,4.6 51.1,9.3 L51.1,49.4 C51.1,54.1 47.3,57.9 42.6,57.9 L8.7,57.9 C4,57.9 0.2,54.1 0.2,49.4 L0.2,9.3 C0.2,4.6 4,0.8 8.7,0.8 Z M32.1,17.9 C34.6,17.9 36.6,15.9 36.6,13.6 C36.6,11.3 34.6,9.3 32.1,9.3 C29.6,9.3 27.6,11.3 27.6,13.6 C27.6,15.9 29.5,17.9 32.1,17.9 Z M32.1,33.6 C34.6,33.6 36.6,31.6 36.6,29.3 C36.6,27 34.6,25 32.1,25 C29.6,25 27.6,27 27.6,29.3 C27.6,31.6 29.5,33.6 32.1,33.6 Z M32.1,49.2 C34.6,49.2 36.6,47.2 36.6,44.9 C36.6,42.6 34.6,40.6 32.1,40.6 C29.6,40.6 27.6,42.6 27.6,44.9 C27.6,47.2 29.5,49.2 32.1,49.2 Z M19.3,9.3 C16.8,9.3 14.8,11.3 14.8,13.8 L14.8,44.7 C14.8,47.2 16.8,49.2 19.3,49.2 C21.8,49.2 23.8,47.2 23.8,44.7 L23.8,13.8 C23.8,11.3 21.8,9.3 19.3,9.3 Z" data-v-fa70c9e8=""></path></g> <g id="Group" transform="translate(69.000000, 3.000000)" data-v-fa70c9e8=""><path id="Shape" d="M18.3,38.2 C20.8,38.2 23,37.2 24.3,35.9 L31.8,40.2 C28.8,44.4 24.2,46.7 18.2,46.7 C7.6,46.7 0.9,39.6 0.9,30.2 C0.9,20.8 7.5,13.7 17.5,13.7 C26.6,13.7 33.3,20.7 33.3,30.2 C33.3,31.5 33.1,32.7 33,33.9 L10.8,33.9 C12,37 14.8,38.2 18.3,38.2 Z M24,26.7 C23,23 20.2,21.7 17.4,21.7 C13.9,21.7 11.4,23.4 10.6,26.7 L24,26.7 Z" fill="#1AB394" fill-rule="nonzero" data-v-fa70c9e8=""></path> <polygon id="Path" fill="#1AB394" points="38.6 0.1 47.9 0.1 47.9 45.6 38.6 45.6 38.6 0.1" data-v-fa70c9e8=""></polygon> <path id="Shape" d="M70.7,38.2 C73.2,38.2 75.4,37.2 76.7,35.9 L84.2,40.2 C81.2,44.4 76.6,46.7 70.6,46.7 C60,46.7 53.3,39.6 53.3,30.2 C53.3,20.8 59.9,13.7 69.9,13.7 C79,13.7 85.7,20.7 85.7,30.2 C85.7,31.5 85.5,32.7 85.4,33.9 L63.3,33.9 C64.4,37 67.2,38.2 70.7,38.2 Z M76.3,26.7 C75.3,23 72.5,21.7 69.7,21.7 C66.2,21.7 63.7,23.4 62.9,26.7 L76.3,26.7 Z" fill="#1AB394" fill-rule="nonzero" data-v-fa70c9e8=""></path> <path id="Path" d="M137.7,26.6 L137.7,45.7 L128.4,45.7 L128.4,27.4 C128.4,24.2 126.9,22.2 123.9,22.2 C120.7,22.2 119.1,24.4 119.1,28 L119.1,45.6 L109.8,45.6 L109.8,27.4 C109.8,24.2 108.3,22.2 105.3,22.2 C102.1,22.2 100.5,24.4 100.5,28 L100.5,45.6 L91.2,45.6 L91.2,14.6 L100.5,14.6 L100.5,17.4 C102,15.2 104.7,13.7 108.8,13.7 C112.5,13.7 115.3,15.2 116.9,17.9 C118.6,15.4 121.6,13.7 125.9,13.7 C133,13.6 137.7,18.8 137.7,26.6 Z" fill="#1AB394" data-v-fa70c9e8=""></path> <path id="Shape" d="M159.9,38.2 C162.4,38.2 164.6,37.2 165.9,35.9 L173.4,40.2 C170.4,44.4 165.8,46.7 159.8,46.7 C149.2,46.7 142.5,39.6 142.5,30.2 C142.5,20.8 149.1,13.7 159.1,13.7 C168.2,13.7 174.9,20.7 174.9,30.2 C174.9,31.5 174.7,32.7 174.6,33.9 L152.5,33.9 C153.6,37 156.4,38.2 159.9,38.2 Z M165.6,26.7 C164.6,23 161.8,21.7 159,21.7 C155.5,21.7 153,23.4 152.2,26.7 L165.6,26.7 Z" fill="#1AB394" fill-rule="nonzero" data-v-fa70c9e8=""></path> <path id="Path" d="M210.1,26.6 L210.1,45.7 L200.8,45.7 L200.8,27.9 C200.8,24.1 198.3,22.2 195.3,22.2 C191.8,22.2 189.5,24.2 189.5,28.7 L189.5,45.7 L180.2,45.7 L180.2,14.6 L189.5,14.6 L189.5,17.6 C191.2,15.3 194.3,13.8 198.5,13.8 C204.8,13.6 210.1,18.1 210.1,26.6 Z" fill="#1AB394" data-v-fa70c9e8=""></path> <path id="Path" d="M228.4,23.4 L228.4,34.4 C228.4,37.1 230.7,37.4 234.9,37.1 L234.9,45.6 C222.8,46.9 219.1,43.1 219.1,34.5 L219.1,23.5 L214.1,23.5 L214.1,14.5 L219.1,14.5 L219.1,8.5 L228.4,5.7 L228.4,14.3 L234.9,14.3 L234.9,23.3 L228.4,23.3 L228.4,23.4 Z" fill="#1AB394" data-v-fa70c9e8=""></path> <path id="Shape" d="M274.8,30.1 C274.8,39.2 267.7,46.4 258.7,46.4 C252.7,46.4 247.9,43.2 245.2,38.4 L245.2,58 L242,58 L242,14.4 L245.2,14.4 L245.2,21.5 C247.7,16.7 252.5,13.5 258.7,13.5 C267.5,13.8 274.8,20.9 274.8,30.1 Z M271.6,30.1 C271.6,22.6 265.8,16.8 258.5,16.8 C251,16.8 245.4,22.6 245.4,30.1 C245.4,37.6 251.2,43.4 258.5,43.4 C265.8,43.4 271.6,37.5 271.6,30.1 Z" fill="#76D1BF" fill-rule="nonzero" data-v-fa70c9e8=""></path> <path id="Path" d="M308.7,26.2 L308.7,45.6 L305.5,45.6 L305.5,26.2 C305.5,20.5 302.2,16.7 296.4,16.7 C290.3,16.7 285.4,20.7 285.4,29.2 L285.4,45.7 L282.2,45.7 L282.2,2.1 L285.4,2.1 L285.4,20.5 C287.7,15.8 291.7,13.9 296.5,13.9 C304,13.8 308.7,18.8 308.7,26.2 Z" fill="#76D1BF" data-v-fa70c9e8=""></path> <path id="Shape" d="M315.3,30.1 C315.3,21 322.6,13.8 331.8,13.8 C340.8,13.8 348.1,20.8 348.1,30.1 C348.1,39.2 340.8,46.4 331.8,46.4 C322.6,46.3 315.3,39.2 315.3,30.1 Z M344.9,30.1 C344.9,22.6 339.2,16.8 331.8,16.8 C324.3,16.8 318.7,22.6 318.7,30.1 C318.7,37.6 324.5,43.4 331.8,43.4 C339.1,43.4 344.9,37.5 344.9,30.1 Z" fill="#76D1BF" fill-rule="nonzero" data-v-fa70c9e8=""></path> <path id="Path" d="M361.5,17.6 L361.5,37.9 C361.5,43.4 364.5,43.6 370.8,42.9 L370.8,45.7 C362.7,47 358.3,45 358.3,37.9 L358.3,17.6 L351.5,17.6 L351.5,14.6 L358.3,14.6 L358.3,6.8 L361.5,5.8 L361.5,14.4 L370.8,14.4 L370.8,17.4 L361.5,17.4 L361.5,17.6 Z" fill="#76D1BF" data-v-fa70c9e8=""></path> <path id="Shape" d="M374.3,30.1 C374.3,21 381.6,13.8 390.8,13.8 C399.8,13.8 407.1,20.8 407.1,30.1 C407.1,39.2 399.8,46.4 390.8,46.4 C381.7,46.3 374.3,39.2 374.3,30.1 Z M403.9,30.1 C403.9,22.6 398.2,16.8 390.8,16.8 C383.3,16.8 377.7,22.6 377.7,30.1 C377.7,37.6 383.5,43.4 390.8,43.4 C398.1,43.4 403.9,37.5 403.9,30.1 Z" fill="#76D1BF" fill-rule="nonzero" data-v-fa70c9e8=""></path></g></g></g></svg>