<svg width="23" height="23" viewBox="0 0 23 23" fill="none" xmlns="http://www.w3.org/2000/svg">
<path fill-rule="evenodd" clip-rule="evenodd" d="M8.21304 21.8627C5.49777 21.8627 3.53816 20.1318 3.53816 18.0533C3.53816 16.0153 5.97022 14.3182 8.68415 14.348C9.31633 14.3561 9.90689 14.4575 10.4424 14.6319C11.9148 15.6651 12.9725 16.2479 13.2704 17.4244C13.3268 17.6638 13.3577 17.9072 13.3577 18.1587C13.3577 20.2386 12.0276 21.8627 8.21304 21.8627ZM8.92575 9.67033C7.10438 9.61489 5.37294 7.61753 5.05887 5.20773C4.74479 2.79792 5.9662 0.953375 7.78756 1.00747C9.60758 1.06291 11.3404 2.99535 11.6544 5.40651C11.9685 7.81632 10.7471 9.72578 8.92575 9.67033ZM12.7014 13.2391C12.0625 12.7833 10.8424 11.6758 10.8424 11.024C10.8424 10.2586 11.0585 9.884 12.198 8.98606C13.3671 8.06515 14.1952 6.77099 14.1952 5.26723C14.1952 3.47407 13.4033 1.72825 11.9162 1.15216H14.1576L15.7401 0H8.66939C5.50179 0 2.51808 2.41927 2.51808 5.22125C2.51808 8.08543 4.67903 10.3965 7.90299 10.3965C8.12848 10.3965 8.34457 10.3925 8.55798 10.3762C8.34994 10.7792 8.19827 11.2349 8.19827 11.7056C8.19827 12.5021 8.62375 13.1485 9.16197 13.6745C8.75529 13.6745 8.36202 13.6867 7.93655 13.6867C4.01061 13.6867 0.987976 16.2047 0.987976 18.8187C0.987976 21.3908 4.30187 23 8.22646 23C12.7014 23 15.175 20.4414 15.175 17.868C15.175 15.8057 14.5697 14.5697 12.7014 13.2391ZM22.988 9.87994H20.2365V7.10771H18.0205V9.87994H15.269V12.1126H18.0205V14.8848H20.2365V12.1126H22.988V9.87994Z" fill="black"/>
</svg>
