<svg width="8" height="12" viewBox="0 0 8 12" fill="none" xmlns="http://www.w3.org/2000/svg">
<path fill-rule="evenodd" clip-rule="evenodd" d="M7.00162 0.66621L7.53629 1.20523C7.71206 1.39211 7.79999 1.61022 7.79999 1.8593C7.79999 2.11341 7.71206 2.32906 7.53629 2.50641L4.07185 6.0001L7.5362 9.49379C7.71197 9.67114 7.7999 9.88678 7.7999 10.1408C7.7999 10.39 7.71197 10.6081 7.5362 10.795L7.00153 11.3269C6.82104 11.509 6.60475 11.6001 6.35286 11.6001C6.09625 11.6001 5.88242 11.509 5.71137 11.3269L1.07086 6.64711C0.89028 6.47453 0.799988 6.25897 0.799988 6.0001C0.799988 5.74607 0.89028 5.52805 1.07086 5.34602L5.71137 0.66621C5.88723 0.488861 6.10106 0.400098 6.35286 0.400098C6.60003 0.400098 6.81622 0.488861 7.00162 0.66621Z" fill="white"/>
</svg>
