<svg width="8" height="12" viewBox="0 0 8 12" fill="none" xmlns="http://www.w3.org/2000/svg">
<path fill-rule="evenodd" clip-rule="evenodd" d="M0.99838 0.66621L0.463714 1.20523C0.287942 1.39211 0.200012 1.61022 0.200012 1.8593C0.200012 2.11341 0.287942 2.32906 0.463714 2.50641L3.92815 6.0001L0.463802 9.49379C0.28803 9.67114 0.2001 9.88678 0.2001 10.1408C0.2001 10.39 0.28803 10.6081 0.463802 10.795L0.998467 11.3269C1.17896 11.509 1.39525 11.6001 1.64714 11.6001C1.90375 11.6001 2.11758 11.509 2.28863 11.3269L6.92914 6.64711C7.10972 6.47453 7.20001 6.25897 7.20001 6.0001C7.20001 5.74607 7.10972 5.52805 6.92914 5.34602L2.28863 0.66621C2.11277 0.488861 1.89894 0.400098 1.64714 0.400098C1.39997 0.400098 1.18378 0.488861 0.99838 0.66621Z" fill="white"/>
</svg>
