<svg width="108" height="24" viewBox="0 0 108 24" fill="none" xmlns="http://www.w3.org/2000/svg">
<path d="M5.816 1.696C6.648 1.696 7.312 1.776 7.808 1.936C8.304 2.096 8.808 2.328 9.32 2.632C9.496 2.728 9.648 2.808 9.776 2.872C9.92 2.936 10.04 2.968 10.136 2.968C10.28 2.968 10.392 2.888 10.472 2.728C10.552 2.552 10.616 2.28 10.664 1.912H11.216C11.136 2.984 11.096 4.808 11.096 7.384H10.544C10.48 6.52 10.28 5.696 9.944 4.912C9.624 4.128 9.16 3.496 8.552 3.016C7.96 2.52 7.264 2.272 6.464 2.272C5.68 2.272 5.04 2.496 4.544 2.944C4.064 3.376 3.824 3.968 3.824 4.72C3.824 5.28 3.944 5.768 4.184 6.184C4.424 6.6 4.76 6.984 5.192 7.336C5.624 7.672 6.288 8.136 7.184 8.728L7.952 9.256C8.896 9.88 9.64 10.424 10.184 10.888C10.728 11.352 11.168 11.896 11.504 12.52C11.856 13.128 12.032 13.84 12.032 14.656C12.032 15.68 11.768 16.544 11.24 17.248C10.712 17.936 9.992 18.456 9.08 18.808C8.184 19.16 7.184 19.336 6.08 19.336C5.184 19.336 4.44 19.256 3.848 19.096C3.256 18.936 2.712 18.72 2.216 18.448C1.864 18.224 1.592 18.112 1.4 18.112C1.256 18.112 1.144 18.2 1.064 18.376C0.984 18.536 0.92 18.8 0.872 19.168H0.32C0.384 18.16 0.416 16 0.416 12.688H0.968C1.08 14.48 1.48 15.936 2.168 17.056C2.856 18.16 3.912 18.712 5.336 18.712C6.2 18.712 6.912 18.48 7.472 18.016C8.032 17.552 8.312 16.888 8.312 16.024C8.312 15.128 8.024 14.36 7.448 13.72C6.872 13.08 5.96 12.36 4.712 11.56C3.752 10.936 2.984 10.392 2.408 9.928C1.832 9.464 1.36 8.92 0.992 8.296C0.624 7.656 0.44 6.92 0.44 6.088C0.44 5.128 0.68 4.32 1.16 3.664C1.656 2.992 2.312 2.496 3.128 2.176C3.944 1.856 4.84 1.696 5.816 1.696ZM25.6664 17.248C25.9224 17.632 26.1304 17.92 26.2904 18.112C26.4504 18.288 26.6584 18.416 26.9144 18.496V19C25.6344 18.936 24.7944 18.904 24.3944 18.904C23.8664 18.904 22.8344 18.936 21.2984 19V18.496C21.5224 18.496 21.6984 18.456 21.8264 18.376C21.9544 18.296 22.0184 18.184 22.0184 18.04C22.0184 17.96 21.9784 17.84 21.8984 17.68L19.5224 13.384C19.3624 13.112 19.1944 12.928 19.0184 12.832C18.8424 12.736 18.6184 12.672 18.3464 12.64V16.768C18.3464 17.424 18.4504 17.88 18.6584 18.136C18.8664 18.376 19.2424 18.496 19.7864 18.496V19C18.1864 18.936 17.1464 18.904 16.6664 18.904C16.1224 18.904 15.0184 18.936 13.3544 19V18.496C13.9144 18.496 14.3064 18.376 14.5304 18.136C14.7704 17.88 14.8904 17.424 14.8904 16.768V3.088C14.8904 2.352 14.7704 1.816 14.5304 1.48C14.3064 1.144 13.9144 0.975999 13.3544 0.975999V0.472C13.8664 0.519999 14.3624 0.543999 14.8424 0.543999C16.2344 0.543999 17.4024 0.431999 18.3464 0.207999V12.184C18.6664 12.152 18.9384 12.088 19.1624 11.992C19.4024 11.896 19.6104 11.752 19.7864 11.56L21.6104 9.784C22.1384 9.256 22.4024 8.768 22.4024 8.32C22.4024 7.952 22.2344 7.664 21.8984 7.456C21.5624 7.232 21.1144 7.104 20.5544 7.072V6.592C21.4344 6.64 22.3704 6.664 23.3624 6.664C24.6904 6.664 25.6264 6.64 26.1704 6.592V7.072C25.2264 7.28 24.2264 7.896 23.1704 8.92L21.6344 10.504L25.6664 17.248ZM37.4015 6.664C38.2015 6.664 38.8175 6.64 39.2495 6.592V7.072C38.9135 7.168 38.6095 7.376 38.3375 7.696C38.0815 8 37.8335 8.48 37.5935 9.136L33.2975 21.208C32.9775 22.04 32.6255 22.608 32.2415 22.912C31.7775 23.312 31.0815 23.512 30.1535 23.512C29.4815 23.512 28.8735 23.344 28.3295 23.008C27.8015 22.688 27.5375 22.216 27.5375 21.592C27.5375 21.096 27.7135 20.696 28.0655 20.392C28.4175 20.104 28.8815 19.96 29.4575 19.96C30.0015 19.96 30.4335 20.088 30.7535 20.344C31.0895 20.616 31.2575 20.992 31.2575 21.472C31.2575 21.808 31.1535 22.112 30.9455 22.384C30.7375 22.672 30.4415 22.888 30.0575 23.032C30.1695 23.048 30.3535 23.056 30.6095 23.056C31.6015 23.056 32.3295 22.424 32.7935 21.16L33.1775 20.008L28.0895 8.44C27.8335 7.896 27.5855 7.536 27.3455 7.36C27.1055 7.184 26.8575 7.096 26.6015 7.096V6.592C27.6575 6.688 28.7535 6.736 29.8895 6.736C30.8335 6.736 31.9455 6.688 33.2255 6.592V7.096C32.7135 7.096 32.3295 7.136 32.0735 7.216C31.8335 7.28 31.7135 7.464 31.7135 7.768C31.7135 7.944 31.7695 8.168 31.8815 8.44L34.8095 15.52L36.4655 10.912C36.7215 10.16 36.8495 9.52 36.8495 8.992C36.8495 7.824 36.2575 7.184 35.0735 7.072V6.592C35.8255 6.64 36.6015 6.664 37.4015 6.664ZM60.3935 2.488C59.8495 2.52 59.4575 2.584 59.2175 2.68C58.9775 2.776 58.8095 2.96 58.7135 3.232C58.6335 3.504 58.5935 3.944 58.5935 4.552V16.456C58.5935 17.064 58.6335 17.504 58.7135 17.776C58.8095 18.048 58.9775 18.232 59.2175 18.328C59.4735 18.424 59.8655 18.488 60.3935 18.52V19C59.5135 18.952 58.2575 18.928 56.6255 18.928C54.9135 18.928 53.6495 18.952 52.8335 19V18.52C53.4095 18.488 53.8255 18.424 54.0815 18.328C54.3535 18.232 54.5375 18.048 54.6335 17.776C54.7295 17.504 54.7775 17.064 54.7775 16.456V3.904L48.9935 19.024H48.6095L42.1295 3.568V15.064C42.1295 16.008 42.1775 16.704 42.2735 17.152C42.3695 17.584 42.5775 17.904 42.8975 18.112C43.2175 18.304 43.7375 18.44 44.4575 18.52V19C43.8335 18.952 42.9695 18.928 41.8655 18.928C40.9855 18.928 40.2895 18.952 39.7775 19V18.52C40.3055 18.44 40.6895 18.304 40.9295 18.112C41.1855 17.92 41.3535 17.616 41.4335 17.2C41.5295 16.784 41.5775 16.168 41.5775 15.352V4.552C41.5775 3.944 41.5295 3.504 41.4335 3.232C41.3535 2.96 41.1855 2.776 40.9295 2.68C40.6895 2.584 40.3055 2.52 39.7775 2.488V2.008C40.2895 2.056 40.9855 2.08 41.8655 2.08C43.3375 2.08 44.6015 2.056 45.6575 2.008L50.5055 13.696L54.9215 2.08H56.6255C58.2575 2.08 59.5135 2.056 60.3935 2.008V2.488ZM68.3664 17.368C69.6784 17.368 70.7344 16.728 71.5344 15.448L71.9664 15.592C71.6464 16.632 71.0704 17.52 70.2384 18.256C69.4224 18.976 68.3984 19.336 67.1664 19.336C65.4704 19.336 64.1184 18.8 63.1104 17.728C62.1184 16.64 61.6224 15.04 61.6224 12.928C61.6224 10.768 62.1584 9.12 63.2304 7.984C64.3024 6.832 65.7264 6.256 67.5024 6.256C70.5104 6.256 72.0144 8.032 72.0144 11.584H65.2704C65.2544 11.824 65.2464 12.2 65.2464 12.712C65.2464 13.768 65.3904 14.648 65.6784 15.352C65.9824 16.056 66.3664 16.568 66.8304 16.888C67.3104 17.208 67.8224 17.368 68.3664 17.368ZM67.3584 6.76C66.7824 6.76 66.3024 7.12 65.9184 7.84C65.5504 8.544 65.3184 9.64 65.2224 11.128H68.9904C69.0224 9.864 68.8944 8.824 68.6064 8.008C68.3344 7.176 67.9184 6.76 67.3584 6.76ZM85.2121 16.36C85.2121 17.096 85.3241 17.632 85.5481 17.968C85.7721 18.304 86.1721 18.472 86.7481 18.472V18.976C86.2521 18.928 85.7561 18.904 85.2601 18.904C83.8361 18.904 82.6681 19.016 81.7561 19.24V17.176C81.2121 18.616 80.1721 19.336 78.6361 19.336C77.1321 19.336 75.9321 18.792 75.0361 17.704C74.1561 16.6 73.7241 14.944 73.7401 12.736C73.7401 11.328 73.9641 10.144 74.4121 9.184C74.8761 8.208 75.5081 7.48 76.3081 7C77.1241 6.504 78.0521 6.256 79.0921 6.256C80.2601 6.256 81.1481 6.56 81.7561 7.168V3.088C81.7561 2.352 81.6361 1.816 81.3961 1.48C81.1721 1.144 80.7801 0.975999 80.2201 0.975999V0.472C80.7321 0.519999 81.2281 0.543999 81.7081 0.543999C83.1001 0.543999 84.2681 0.431999 85.2121 0.207999V16.36ZM79.6201 18.304C80.1481 18.304 80.6121 18.112 81.0121 17.728C81.4281 17.344 81.6761 16.824 81.7561 16.168V7.768C81.3561 7.224 80.7721 6.952 80.0041 6.952C79.1561 6.952 78.5001 7.44 78.0361 8.416C77.5721 9.392 77.3481 10.848 77.3641 12.784C77.3481 14.736 77.5321 16.144 77.9161 17.008C78.3161 17.872 78.8841 18.304 79.6201 18.304ZM90.8679 0.399999C91.5399 0.399999 92.0679 0.567999 92.4519 0.904C92.8519 1.224 93.0519 1.672 93.0519 2.248C93.0519 2.824 92.8519 3.28 92.4519 3.616C92.0679 3.936 91.5399 4.096 90.8679 4.096C90.1959 4.096 89.6599 3.936 89.2599 3.616C88.8759 3.28 88.6839 2.824 88.6839 2.248C88.6839 1.672 88.8759 1.224 89.2599 0.904C89.6599 0.567999 90.1959 0.399999 90.8679 0.399999ZM92.7399 16.768C92.7399 17.424 92.8519 17.88 93.0759 18.136C93.3159 18.376 93.7159 18.496 94.2759 18.496V19C92.6759 18.936 91.6119 18.904 91.0839 18.904C90.5879 18.904 89.4759 18.936 87.7479 19V18.496C88.3239 18.496 88.7239 18.376 88.9479 18.136C89.1719 17.88 89.2839 17.424 89.2839 16.768V9.208C89.2839 8.472 89.1719 7.936 88.9479 7.6C88.7239 7.264 88.3239 7.096 87.7479 7.096V6.592C88.2599 6.64 88.7559 6.664 89.2359 6.664C90.6599 6.664 91.8279 6.552 92.7399 6.328V16.768ZM98.4862 19.168C97.4622 19.168 96.6942 18.904 96.1822 18.376C95.6862 17.848 95.4382 17.152 95.4382 16.288C95.4382 15.568 95.6222 14.976 95.9902 14.512C96.3742 14.032 96.8302 13.664 97.3582 13.408C97.9022 13.152 98.5902 12.88 99.4222 12.592C100.302 12.288 100.942 12.016 101.342 11.776C101.758 11.52 101.966 11.176 101.966 10.744V8.872C101.966 8.2 101.806 7.68 101.486 7.312C101.182 6.928 100.702 6.736 100.046 6.736C99.2782 6.736 98.6942 6.928 98.2942 7.312C98.7422 7.472 99.0862 7.712 99.3262 8.032C99.5822 8.352 99.7102 8.728 99.7102 9.16C99.7102 9.704 99.5262 10.136 99.1582 10.456C98.7902 10.776 98.3422 10.936 97.8142 10.936C97.2542 10.936 96.8222 10.76 96.5182 10.408C96.2142 10.056 96.0622 9.616 96.0622 9.088C96.0622 8.64 96.1662 8.264 96.3742 7.96C96.5982 7.64 96.9342 7.344 97.3822 7.072C97.8142 6.816 98.3422 6.616 98.9662 6.472C99.6062 6.328 100.302 6.256 101.054 6.256C101.838 6.256 102.518 6.336 103.094 6.496C103.67 6.656 104.15 6.928 104.534 7.312C104.886 7.664 105.118 8.096 105.23 8.608C105.358 9.12 105.422 9.816 105.422 10.696V17.224C105.422 17.608 105.454 17.88 105.518 18.04C105.598 18.2 105.742 18.28 105.95 18.28C106.19 18.28 106.478 18.144 106.814 17.872L107.054 18.28C106.334 18.872 105.454 19.168 104.414 19.168C103.534 19.168 102.918 18.992 102.566 18.64C102.214 18.288 102.03 17.816 102.014 17.224C101.214 18.52 100.038 19.168 98.4862 19.168ZM100.334 17.632C100.958 17.632 101.502 17.304 101.966 16.648V11.728C101.774 12.048 101.366 12.4 100.742 12.784C100.118 13.184 99.6462 13.584 99.3262 13.984C99.0062 14.384 98.8462 14.96 98.8462 15.712C98.8462 16.368 98.9822 16.856 99.2542 17.176C99.5262 17.48 99.8862 17.632 100.334 17.632Z" fill="#535B6C"/>
</svg>
